# Exported from Wings 3D 1.0.2
mtllib light.mtl
o cylinder3
#72 vertices, 55 faces
v 1.00000000 0.11200000 0.0000000e+0
v 0.93969262 0.11200000 0.34202014
v 0.76604444 0.11200000 0.64278761
v 0.50000000 0.11200000 0.86602540
v 0.17364818 0.11200000 0.98480775
v -0.17364818 0.11200000 0.98480775
v -0.50000000 0.11200000 0.86602540
v -0.76604444 0.11200000 0.64278761
v -0.93969262 0.11200000 0.34202014
v -1.00000000 0.11200000 1.2246468e-16
v -0.93969262 0.11200000 -0.34202014
v -0.76604444 0.11200000 -0.64278761
v -0.50000000 0.11200000 -0.86602540
v -0.17364818 0.11200000 -0.98480775
v 0.17364818 0.11200000 -0.98480775
v 0.50000000 0.11200000 -0.86602540
v 0.76604444 0.11200000 -0.64278761
v 0.93969262 0.11200000 -0.34202014
v 1.00000000 -0.11200000 0.0000000e+0
v 0.93969262 -0.11200000 0.34202014
v 0.76604444 -0.11200000 0.64278761
v 0.50000000 -0.11200000 0.86602540
v 0.17364818 -0.11200000 0.98480775
v -0.17364818 -0.11200000 0.98480775
v -0.50000000 -0.11200000 0.86602540
v -0.76604444 -0.11200000 0.64278761
v -0.93969262 -0.11200000 0.34202014
v -1.00000000 -0.11200000 1.2246468e-16
v -0.93969262 -0.11200000 -0.34202014
v -0.76604444 -0.11200000 -0.64278761
v -0.50000000 -0.11200000 -0.86602540
v -0.17364818 -0.11200000 -0.98480775
v 0.17364818 -0.11200000 -0.98480775
v 0.50000000 -0.11200000 -0.86602540
v 0.76604444 -0.11200000 -0.64278761
v 0.93969262 -0.11200000 -0.34202014
v 0.91800000 -0.11200000 2.3110675e-17
v 0.86263783 -0.11200000 0.31397449
v 0.70322880 -0.11200000 0.59007903
v 0.45900000 -0.11200000 0.79501132
v 0.15940903 -0.11200000 0.90405352
v -0.15940903 -0.11200000 0.90405352
v -0.45900000 -0.11200000 0.79501132
v -0.70322880 -0.11200000 0.59007903
v -0.86263783 -0.11200000 0.31397449
v -0.91800000 -0.11200000 1.1090934e-16
v -0.86263783 -0.11200000 -0.31397449
v -0.70322880 -0.11200000 -0.59007903
v -0.45900000 -0.11200000 -0.79501132
v -0.15940903 -0.11200000 -0.90405352
v 0.15940903 -0.11200000 -0.90405352
v 0.45900000 -0.11200000 -0.79501132
v 0.70322880 -0.11200000 -0.59007903
v 0.86263783 -0.11200000 -0.31397449
v 0.91800000 -8.0142222e-2 2.3110675e-17
v 0.86263783 -8.0142222e-2 0.31397449
v 0.70322880 -8.0142222e-2 0.59007903
v 0.45900000 -8.0142222e-2 0.79501132
v 0.15940903 -8.0142222e-2 0.90405352
v -0.15940903 -8.0142222e-2 0.90405352
v -0.45900000 -8.0142222e-2 0.79501132
v -0.70322880 -8.0142222e-2 0.59007903
v -0.86263783 -8.0142222e-2 0.31397449
v -0.91800000 -8.0142222e-2 1.1090934e-16
v -0.86263783 -8.0142222e-2 -0.31397449
v -0.70322880 -8.0142222e-2 -0.59007903
v -0.45900000 -8.0142222e-2 -0.79501132
v -0.15940903 -8.0142222e-2 -0.90405352
v 0.15940903 -8.0142222e-2 -0.90405352
v 0.45900000 -8.0142222e-2 -0.79501132
v 0.70322880 -8.0142222e-2 -0.59007903
v 0.86263783 -8.0142222e-2 -0.31397449
vt 0.0000000e+0 5.9601629e-14
vt 0.0000000e+0 4.0928506e-2
vt 0.0000000e+0 0.19846411
vt 5.4123372e-14 3.5832350e-2
vt 1.7579271e-12 3.5832350e-2
vt 9.6471210e-3 0.14375257
vt 9.6471210e-3 0.25317565
vt 1.3117199e-2 0.19846411
vt 2.1973257e-2 0.14823892
vt 2.1973257e-2 0.24868931
vt 3.7424899e-2 0.30128818
vt 3.7424899e-2 9.5640048e-2
vt 4.7473256e-2 0.29285660
vt 4.7473257e-2 0.10407162
vt 5.1000000e-2 3.5832350e-2
vt 5.1000000e-2 4.0928506e-2
vt 5.5555556e-2 3.5832350e-2
vt 5.5555556e-2 0.0000000e+0
vt 7.9982923e-2 5.9929625e-2
vt 7.9982923e-2 0.33699860
vt 8.6541523e-2 7.1289453e-2
vt 8.6541523e-2 0.32563877
vt 0.10200000 3.5832350e-2
vt 0.10200000 4.0928506e-2
vt 0.11111111 3.5832350e-2
vt 0.11111111 7.0367323e-14
vt 0.13218807 0.35599972
vt 0.13218807 4.0928506e-2
vt 0.13446585 5.3846426e-2
vt 0.13446585 0.34308180
vt 0.15300000 3.5832350e-2
vt 0.15300000 4.0928506e-2
vt 0.16666667 3.5832350e-2
vt 0.16666667 1.1007861e-13
vt 0.18546585 5.3846426e-2
vt 0.18546585 0.34308180
vt 0.18774362 4.0928506e-2
vt 0.18774362 0.35599972
vt 0.20400000 3.5832350e-2
vt 0.20400000 4.0928506e-2
vt 0.22222222 1.2788728e-13
vt 0.22222222 3.5832350e-2
vt 0.23339017 7.1289453e-2
vt 0.23339017 0.32563877
vt 0.23994877 5.9929625e-2
vt 0.23994877 0.33699860
vt 0.25500000 3.5832350e-2
vt 0.25500000 4.0928506e-2
vt 0.27245844 0.29285660
vt 0.27245844 0.10407162
vt 0.27245844 0.29285660
vt 0.27777778 3.5832350e-2
vt 0.27777778 1.6102050e-13
vt 0.28250679 0.30128818
vt 0.28250679 0.30128818
vt 0.28250679 9.5640048e-2
vt 0.29795844 0.14823892
vt 0.29795844 0.24868931
vt 0.30600000 3.5832350e-2
vt 0.30600000 4.0928506e-2
vt 0.30681449 0.19846411
vt 0.31028457 0.14375257
vt 0.31028457 0.25317565
vt 0.31993169 0.18554619
vt 0.31993169 0.19846411
vt 0.32878775 0.13532100
vt 0.32878775 0.23577139
vt 0.33333333 3.5832350e-2
vt 0.33333333 2.0879132e-13
vt 0.35428775 0.27993868
vt 0.35428775 9.1153702e-2
vt 0.35700000 3.5832350e-2
vt 0.35700000 4.0928506e-2
vt 0.38888889 3.5832350e-2
vt 0.38888889 1.9440699e-13
vt 0.39335602 0.31272085
vt 0.39335602 5.8371534e-2
vt 0.40800000 3.5832350e-2
vt 0.40800000 4.0928506e-2
vt 0.44128034 0.33016388
vt 0.44128034 4.0928506e-2
vt 0.44444444 3.5832350e-2
vt 0.44444444 2.0396185e-13
vt 0.45900000 3.5832350e-2
vt 0.45900000 4.0928506e-2
vt 0.49228034 0.33016388
vt 0.49228034 4.0928506e-2
vt 0.50000000 2.2722796e-13
vt 0.50000000 3.5832350e-2
vt 0.51000000 4.0928506e-2
vt 0.51000000 3.5832350e-2
vt 0.54020466 0.31272085
vt 0.54020466 5.8371534e-2
vt 0.55555556 1.9103122e-13
vt 0.55555556 3.5832350e-2
vt 0.56100000 4.0928506e-2
vt 0.56100000 3.5832350e-2
vt 0.57927293 0.27993868
vt 0.57927293 9.1153702e-2
vt 0.60477293 0.23577139
vt 0.60477293 0.13532100
vt 0.61111111 1.8361007e-13
vt 0.61111111 3.5832350e-2
vt 0.61200000 4.0928506e-2
vt 0.61200000 3.5832350e-2
vt 0.61362899 0.18554619
vt 0.66300000 4.0928506e-2
vt 0.66300000 3.5832350e-2
vt 0.66666667 2.1547000e-13
vt 0.66666667 3.5832350e-2
vt 0.71400000 4.0928506e-2
vt 0.71400000 3.5832350e-2
vt 0.72222222 2.0222019e-13
vt 0.72222222 3.5832350e-2
vt 0.76500000 4.0928506e-2
vt 0.76500000 3.5832350e-2
vt 0.77777778 3.5200662e-13
vt 0.77777778 3.5832350e-2
vt 0.81600000 4.0928506e-2
vt 0.81600000 3.5832350e-2
vt 0.83333333 3.5832350e-2
vt 0.83333333 3.4156358e-13
vt 0.86700000 4.0928506e-2
vt 0.86700000 3.5832350e-2
vt 0.88888889 7.5224202e-13
vt 0.88888889 3.5832350e-2
vt 0.91800000 4.0928506e-2
vt 0.91800000 3.5832350e-2
vt 0.94444444 3.5832350e-2
vt 0.94444444 2.9475034e-13
vt 1.00000000 3.5832350e-2
vt 1.00000000 5.9612038e-14
vn 1.00000000 0.0000000e+0 -3.5229688e-16
vn 1.00000000 0.0000000e+0 -3.5229688e-16
vn 0.93969262 0.0000000e+0 0.34202014
vn 0.93969262 0.0000000e+0 0.34202014
vn 0.76604444 -9.0571288e-17 0.64278761
vn 0.76604444 -9.0571288e-17 0.64278761
vn 0.50000000 -9.0571288e-17 0.86602540
vn 0.50000000 -9.0571288e-17 0.86602540
vn 0.17364818 0.0000000e+0 0.98480775
vn 0.17364818 0.0000000e+0 0.98480775
vn -0.17364818 1.8114258e-16 0.98480775
vn -0.17364818 1.8114258e-16 0.98480775
vn -0.50000000 1.8114258e-16 0.86602540
vn -0.50000000 1.8114258e-16 0.86602540
vn -0.76604444 4.5285644e-17 0.64278761
vn -0.76604444 4.5285644e-17 0.64278761
vn -0.93969262 4.3828212e-17 0.34202014
vn -0.93969262 4.3828212e-17 0.34202014
vn -1.00000000 -1.4574316e-18 1.8319438e-16
vn -1.00000000 -1.4574316e-18 1.8319438e-16
vn -0.93969262 4.5285644e-17 -0.34202014
vn -0.93969262 4.5285644e-17 -0.34202014
vn -0.76604444 4.5285644e-17 -0.64278761
vn -0.76604444 4.5285644e-17 -0.64278761
vn -0.50000000 1.8114258e-16 -0.86602540
vn -0.50000000 1.8114258e-16 -0.86602540
vn -0.17364818 1.8114258e-16 -0.98480775
vn -0.17364818 1.8114258e-16 -0.98480775
vn 0.17364818 0.0000000e+0 -0.98480775
vn 0.17364818 0.0000000e+0 -0.98480775
vn 0.50000000 0.0000000e+0 -0.86602540
vn 0.50000000 0.0000000e+0 -0.86602540
vn 0.76604444 2.2642822e-17 -0.64278761
vn 0.76604444 2.2642822e-17 -0.64278761
vn 0.93969262 2.2642822e-17 -0.34202014
vn 0.93969262 2.2642822e-17 -0.34202014
vn 1.00000000 0.0000000e+0 -3.5229688e-16
vn 1.00000000 0.0000000e+0 -3.5229688e-16
vn -6.4497980e-17 -1.00000000 0.0000000e+0
vn -6.4497980e-17 -1.00000000 0.0000000e+0
vn 0.93969262 0.0000000e+0 0.34202014
vn 0.93969262 0.0000000e+0 0.34202014
vn -9.6746970e-17 -1.00000000 0.0000000e+0
vn -9.6746970e-17 -1.00000000 0.0000000e+0
vn 0.76604444 -9.0571288e-17 0.64278761
vn 0.76604444 -9.0571288e-17 0.64278761
vn -6.4497980e-17 -1.00000000 0.0000000e+0
vn -6.4497980e-17 -1.00000000 0.0000000e+0
vn 0.50000000 -9.0571288e-17 0.86602540
vn 0.50000000 -9.0571288e-17 0.86602540
vn -2.4186742e-17 -1.00000000 0.0000000e+0
vn -2.4186742e-17 -1.00000000 0.0000000e+0
vn 0.17364818 0.0000000e+0 0.98480775
vn 0.17364818 0.0000000e+0 0.98480775
vn 8.0622475e-18 -1.00000000 0.0000000e+0
vn 8.0622475e-18 -1.00000000 0.0000000e+0
vn -0.17364818 1.8114258e-16 0.98480775
vn -0.17364818 1.8114258e-16 0.98480775
vn 0.0000000e+0 -1.00000000 0.0000000e+0
vn 0.0000000e+0 -1.00000000 0.0000000e+0
vn -0.50000000 1.8114258e-16 0.86602540
vn -0.50000000 1.8114258e-16 0.86602540
vn 3.2248990e-17 -1.00000000 0.0000000e+0
vn 3.2248990e-17 -1.00000000 0.0000000e+0
vn -0.76604444 4.5285644e-17 0.64278761
vn -0.76604444 4.5285644e-17 0.64278761
vn -3.2248990e-17 -1.00000000 0.0000000e+0
vn -3.2248990e-17 -1.00000000 0.0000000e+0
vn -0.93969262 4.3828212e-17 0.34202014
vn -0.93969262 4.3828212e-17 0.34202014
vn -1.2899596e-16 -1.00000000 0.0000000e+0
vn -1.2899596e-16 -1.00000000 0.0000000e+0
vn -1.00000000 -1.4574316e-18 1.8319438e-16
vn -1.00000000 -1.4574316e-18 1.8319438e-16
vn -1.2899596e-16 -1.00000000 0.0000000e+0
vn -1.2899596e-16 -1.00000000 0.0000000e+0
vn -0.93969262 4.5285644e-17 -0.34202014
vn -0.93969262 4.5285644e-17 -0.34202014
vn -9.6746970e-17 -1.00000000 0.0000000e+0
vn -9.6746970e-17 -1.00000000 0.0000000e+0
vn -0.76604444 4.5285644e-17 -0.64278761
vn -0.76604444 4.5285644e-17 -0.64278761
vn -3.2248990e-17 -1.00000000 0.0000000e+0
vn -3.2248990e-17 -1.00000000 0.0000000e+0
vn -0.50000000 1.8114258e-16 -0.86602540
vn -0.50000000 1.8114258e-16 -0.86602540
vn 0.0000000e+0 -1.00000000 0.0000000e+0
vn 0.0000000e+0 -1.00000000 0.0000000e+0
vn -0.17364818 1.8114258e-16 -0.98480775
vn -0.17364818 1.8114258e-16 -0.98480775
vn 0.0000000e+0 -1.00000000 0.0000000e+0
vn 0.0000000e+0 -1.00000000 0.0000000e+0
vn 0.17364818 0.0000000e+0 -0.98480775
vn 0.17364818 0.0000000e+0 -0.98480775
vn 0.0000000e+0 -1.00000000 0.0000000e+0
vn 0.0000000e+0 -1.00000000 0.0000000e+0
vn 0.50000000 0.0000000e+0 -0.86602540
vn 0.50000000 0.0000000e+0 -0.86602540
vn 3.2248990e-17 -1.00000000 0.0000000e+0
vn 3.2248990e-17 -1.00000000 0.0000000e+0
vn 0.76604444 2.2642822e-17 -0.64278761
vn 0.76604444 2.2642822e-17 -0.64278761
vn 3.2248990e-17 -1.00000000 0.0000000e+0
vn 3.2248990e-17 -1.00000000 0.0000000e+0
vn 0.93969262 2.2642822e-17 -0.34202014
vn 0.93969262 2.2642822e-17 -0.34202014
vn 0.0000000e+0 -1.00000000 0.0000000e+0
vn 0.0000000e+0 -1.00000000 0.0000000e+0
vn -6.4497980e-17 -1.00000000 0.0000000e+0
vn -6.4497980e-17 -1.00000000 0.0000000e+0
vn -1.00000000 3.1978341e-17 3.5229688e-16
vn -1.00000000 3.1978341e-17 3.5229688e-16
vn -9.6746970e-17 -1.00000000 0.0000000e+0
vn -9.6746970e-17 -1.00000000 0.0000000e+0
vn -0.93969262 0.0000000e+0 -0.34202014
vn -0.93969262 0.0000000e+0 -0.34202014
vn -6.4497980e-17 -1.00000000 0.0000000e+0
vn -6.4497980e-17 -1.00000000 0.0000000e+0
vn -0.76604444 6.9371391e-16 -0.64278761
vn -0.76604444 6.9371391e-16 -0.64278761
vn -2.4186742e-17 -1.00000000 0.0000000e+0
vn -2.4186742e-17 -1.00000000 0.0000000e+0
vn -0.50000000 6.9371391e-16 -0.86602540
vn -0.50000000 6.9371391e-16 -0.86602540
vn 8.0622475e-18 -1.00000000 0.0000000e+0
vn 8.0622475e-18 -1.00000000 0.0000000e+0
vn -0.17364818 0.0000000e+0 -0.98480775
vn -0.17364818 0.0000000e+0 -0.98480775
vn 0.0000000e+0 -1.00000000 0.0000000e+0
vn 0.0000000e+0 -1.00000000 0.0000000e+0
vn 0.17364818 -1.3874278e-15 -0.98480775
vn 0.17364818 -1.3874278e-15 -0.98480775
vn 3.2248990e-17 -1.00000000 0.0000000e+0
vn 3.2248990e-17 -1.00000000 0.0000000e+0
vn 0.50000000 -1.3874278e-15 -0.86602540
vn 0.50000000 -1.3874278e-15 -0.86602540
vn -3.2248990e-17 -1.00000000 0.0000000e+0
vn -3.2248990e-17 -1.00000000 0.0000000e+0
vn 0.76604444 -1.7342848e-16 -0.64278761
vn 0.76604444 -1.7342848e-16 -0.64278761
vn -1.2899596e-16 -1.00000000 0.0000000e+0
vn -1.2899596e-16 -1.00000000 0.0000000e+0
vn 0.93969262 -1.5346574e-16 -0.34202014
vn 0.93969262 -1.5346574e-16 -0.34202014
vn -1.2899596e-16 -1.00000000 0.0000000e+0
vn -1.2899596e-16 -1.00000000 0.0000000e+0
vn 1.00000000 1.9962740e-17 -1.6910250e-16
vn 1.00000000 1.9962740e-17 -1.6910250e-16
vn -9.6746970e-17 -1.00000000 0.0000000e+0
vn -9.6746970e-17 -1.00000000 0.0000000e+0
vn 0.93969262 3.4685695e-16 0.34202014
vn 0.93969262 3.4685695e-16 0.34202014
vn -3.2248990e-17 -1.00000000 0.0000000e+0
vn -3.2248990e-17 -1.00000000 0.0000000e+0
vn 0.76604444 1.0405709e-15 0.64278761
vn 0.76604444 1.0405709e-15 0.64278761
vn 0.0000000e+0 -1.00000000 0.0000000e+0
vn 0.0000000e+0 -1.00000000 0.0000000e+0
vn 0.50000000 6.9371391e-16 0.86602540
vn 0.50000000 6.9371391e-16 0.86602540
vn 0.0000000e+0 -1.00000000 0.0000000e+0
vn 0.0000000e+0 -1.00000000 0.0000000e+0
vn 0.17364818 -1.3874278e-15 0.98480775
vn 0.17364818 -1.3874278e-15 0.98480775
vn 0.0000000e+0 -1.00000000 0.0000000e+0
vn 0.0000000e+0 -1.00000000 0.0000000e+0
vn -0.17364818 -2.0811417e-15 0.98480775
vn -0.17364818 -2.0811417e-15 0.98480775
vn 3.2248990e-17 -1.00000000 0.0000000e+0
vn 3.2248990e-17 -1.00000000 0.0000000e+0
vn -0.50000000 -6.9371391e-16 0.86602540
vn -0.50000000 -6.9371391e-16 0.86602540
vn 3.2248990e-17 -1.00000000 0.0000000e+0
vn 3.2248990e-17 -1.00000000 0.0000000e+0
vn -0.76604444 -1.7342848e-16 0.64278761
vn -0.76604444 -1.7342848e-16 0.64278761
vn 0.0000000e+0 -1.00000000 0.0000000e+0
vn 0.0000000e+0 -1.00000000 0.0000000e+0
vn -0.93969262 -1.4145014e-16 0.34202014
vn -0.93969262 -1.4145014e-16 0.34202014
vn 0.0000000e+0 -1.00000000 -4.3467439e-18
vn -1.00000000 3.1978341e-17 3.5229688e-16
vn -1.00000000 3.1978341e-17 3.5229688e-16
vn 0.0000000e+0 -1.00000000 -4.3467439e-18
vn -0.93969262 0.0000000e+0 -0.34202014
vn -0.93969262 0.0000000e+0 -0.34202014
vn 0.0000000e+0 -1.00000000 -4.3467439e-18
vn -0.76604444 6.9371391e-16 -0.64278761
vn -0.76604444 6.9371391e-16 -0.64278761
vn 0.0000000e+0 -1.00000000 -4.3467439e-18
vn -0.50000000 6.9371391e-16 -0.86602540
vn -0.50000000 6.9371391e-16 -0.86602540
vn 0.0000000e+0 -1.00000000 -4.3467439e-18
vn -0.17364818 0.0000000e+0 -0.98480775
vn -0.17364818 0.0000000e+0 -0.98480775
vn 0.0000000e+0 -1.00000000 -4.3467439e-18
vn 0.17364818 -1.3874278e-15 -0.98480775
vn 0.17364818 -1.3874278e-15 -0.98480775
vn 0.0000000e+0 -1.00000000 -4.3467439e-18
vn 0.50000000 -1.3874278e-15 -0.86602540
vn 0.50000000 -1.3874278e-15 -0.86602540
vn 0.0000000e+0 -1.00000000 -4.3467439e-18
vn 0.76604444 -1.7342848e-16 -0.64278761
vn 0.76604444 -1.7342848e-16 -0.64278761
vn 0.0000000e+0 -1.00000000 -4.3467439e-18
vn 0.93969262 -1.5346574e-16 -0.34202014
vn 0.93969262 -1.5346574e-16 -0.34202014
vn 0.0000000e+0 -1.00000000 -4.3467439e-18
vn 1.00000000 1.9962740e-17 -1.6910250e-16
vn 1.00000000 1.9962740e-17 -1.6910250e-16
vn 0.0000000e+0 -1.00000000 -4.3467439e-18
vn 0.93969262 3.4685695e-16 0.34202014
vn 0.93969262 3.4685695e-16 0.34202014
vn 0.0000000e+0 -1.00000000 -4.3467439e-18
vn 0.76604444 1.0405709e-15 0.64278761
vn 0.76604444 1.0405709e-15 0.64278761
vn 0.0000000e+0 -1.00000000 -4.3467439e-18
vn 0.50000000 6.9371391e-16 0.86602540
vn 0.50000000 6.9371391e-16 0.86602540
vn 0.0000000e+0 -1.00000000 -4.3467439e-18
vn 0.17364818 -1.3874278e-15 0.98480775
vn 0.17364818 -1.3874278e-15 0.98480775
vn 0.0000000e+0 -1.00000000 -4.3467439e-18
vn -0.17364818 -2.0811417e-15 0.98480775
vn -0.17364818 -2.0811417e-15 0.98480775
vn 0.0000000e+0 -1.00000000 -4.3467439e-18
vn -0.50000000 -6.9371391e-16 0.86602540
vn -0.50000000 -6.9371391e-16 0.86602540
vn 0.0000000e+0 -1.00000000 -4.3467439e-18
vn -0.76604444 -1.7342848e-16 0.64278761
vn -0.76604444 -1.7342848e-16 0.64278761
vn 0.0000000e+0 -1.00000000 -4.3467439e-18
vn -0.93969262 -1.4145014e-16 0.34202014
vn -0.93969262 -1.4145014e-16 0.34202014
g cylinder3_a
usemtl a
f 56/66/184 57/71/187 58/77/190 59/81/193 60/87/196 61/93/199 62/99/202 63/101/205 64/106/208 65/100/211 66/98/214 67/92/217 68/86/220 69/80/223 70/76/226 71/70/229 72/67/232 55/64/181
g cylinder3_default
usemtl default
f 1/103/1 19/102/37 36/109/105 18/110/35
f 2/95/4 20/94/42 19/102/38 1/103/2
f 3/89/6 21/88/46 20/94/41 2/95/3
f 4/82/8 22/83/50 21/88/45 3/89/5
f 5/74/10 23/75/54 22/83/49 4/82/7
f 6/68/12 24/69/58 23/75/53 5/74/9
f 7/52/14 25/53/62 24/69/57 6/68/11
f 8/42/16 26/41/66 25/53/61 7/52/13
f 9/33/18 27/34/70 26/41/65 8/42/15
f 10/25/20 28/26/74 27/34/69 9/33/17
f 11/17/22 29/18/78 28/26/73 10/25/19
f 12/4/24 30/1/82 29/18/77 11/17/21
f 13/129/26 31/130/86 30/132/81 12/131/23
f 14/126/28 32/125/90 31/130/85 13/129/25
f 15/121/30 33/122/94 32/125/89 14/126/27
f 16/118/32 34/117/98 33/122/93 15/121/29
f 17/114/34 35/113/102 34/117/97 16/118/31
f 18/110/36 36/109/106 35/113/101 17/114/33
f 19/3/40 37/8/110 54/10/178 36/7/108
f 20/6/43 38/9/113 37/8/109 19/3/39
f 21/12/47 39/14/117 38/9/114 20/6/44
f 22/19/51 40/21/121 39/14/118 21/12/48
f 23/28/55 41/29/125 40/21/122 22/19/52
f 24/37/59 42/35/129 41/29/126 23/28/56
f 25/45/63 43/43/133 42/35/130 24/37/60
f 26/56/67 44/50/137 43/43/134 25/45/64
f 27/62/71 45/57/141 44/50/138 26/56/68
f 28/65/75 46/61/145 45/57/142 27/62/72
f 29/63/79 47/58/149 46/61/146 28/65/76
f 30/54/83 48/49/153 47/58/150 29/63/80
f 31/46/87 49/44/157 48/51/154 30/55/84
f 32/38/91 50/36/161 49/44/158 31/46/88
f 33/27/95 51/30/165 50/36/162 32/38/92
f 34/20/99 52/22/169 51/30/166 33/27/96
f 35/11/103 53/13/173 52/22/170 34/20/100
f 36/7/107 54/10/177 53/13/174 35/11/104
f 37/96/112 55/97/183 72/105/234 54/104/180
f 38/90/115 56/91/185 55/97/182 37/96/111
f 39/85/119 57/84/188 56/91/186 38/90/116
f 40/79/123 58/78/191 57/84/189 39/85/120
f 41/73/127 59/72/194 58/78/192 40/79/124
f 42/60/131 60/59/197 59/72/195 41/73/128
f 43/48/135 61/47/200 60/59/198 42/60/132
f 44/40/139 62/39/203 61/47/201 43/48/136
f 45/32/143 63/31/206 62/39/204 44/40/140
f 46/24/147 64/23/209 63/31/207 45/32/144
f 47/16/151 65/15/212 64/23/210 46/24/148
f 48/2/155 66/5/215 65/15/213 47/16/152
f 49/123/159 67/124/218 66/128/216 48/127/156
f 50/119/163 68/120/221 67/124/219 49/123/160
f 51/115/167 69/116/224 68/120/222 50/119/164
f 52/111/171 70/112/227 69/116/225 51/115/168
f 53/107/175 71/108/230 70/112/228 52/111/172
f 54/104/179 72/105/233 71/108/231 53/107/176
