# Exported from Wings 3D 1.0.2
mtllib MeetingRoomHull.mtl
o cube1_sep32
#44 vertices, 32 faces
v -5.25961641 -5.1729615e-2 8.43758127
v -5.25972326 4.10507009 8.43758127
v 9.85502964 4.10507009 8.43758127
v 9.85487687 -5.1729615e-2 8.43758127
v 9.85514546 5.19552907 -5.25977600
v 9.85494346 -5.1729615e-2 -5.25977600
v -2.00103784 5.19552907 -5.25977600
v -2.00103784 -5.1729615e-2 -5.25977600
v -5.25982890 5.19552907 -3.55821185
v -5.25966061 -5.1729615e-2 -3.55821172
v -2.01915478 -5.1729615e-2 -3.55571702
v -2.01915478 5.19552907 -3.55571702
v -5.25969192 -5.1729615e-2 6.34875644
v 7.44092057 -5.1729615e-2 -5.25977600
v 7.44292988 -5.1729615e-2 6.34381970
v -5.27723029 5.19552907 6.41231869
v 9.87259855 5.19552907 6.40716750
v 9.86369868 4.10507009 6.39685741
v -5.26856108 4.10507009 6.39944578
v 7.44092057 1.65500688 -5.25977600
v 9.68648316 1.65500688 -5.25977600
v 9.68648316 4.53535393 -5.25977600
v -1.83308177 4.53535393 -5.25977600
v -1.83308177 1.65500688 -5.25977600
v -5.09125270 1.85800107 -3.55808207
v -2.08813025 1.85800107 -3.55577012
v -2.08813025 4.73834812 -3.55577012
v -5.09125270 4.73834812 -3.55808207
v 7.44092057 1.65500688 -5.44317874
v 9.68648316 1.65500688 -5.44317874
v 9.68648316 4.53535393 -5.44317874
v -1.83308177 4.53535393 -5.44317874
v -1.83308177 1.65500688 -5.44317874
v -5.09111151 1.85800107 -3.74148476
v -2.08798905 1.85800107 -3.73917281
v -2.08798905 4.73834812 -3.73917281
v -5.09111151 4.73834812 -3.74148476
v 9.85496092 4.11909628 -5.25977600
v 9.85495054 -5.1729615e-2 0.66681365
v 9.85493945 -5.1729615e-2 2.94567107
v 9.85785766 4.09756825 0.73778750
v 9.86074719 4.07619090 2.80846481
v 9.85641279 3.80174099 0.66744454
v 9.85785761 3.79106151 2.93065810
vt -2.64573567 -0.81557668
vt -2.64573565 -1.37737849
vt -1.49673759 1.99526610
vt -1.49176125 1.57401485
vt -1.49171988 6.8930931e-3
vt -1.20727659 -1.98975493
vt -1.20727659 1.38043620
vt -9.9457508e-2 1.37958335
vt -9.3263014e-2 1.96223077
vt 0.0000000e+0 0.37546499
vt 0.0000000e+0 0.72483016
vt 0.0000000e+0 0.78117559
vt 2.3927184e-4 0.72483175
vt 2.3929920e-4 0.69472924
vt 4.7858679e-4 0.69472924
vt 0.27243694 0.85792062
vt 0.27243694 0.99999875
vt 0.27708757 0.91063430
vt 0.27708757 0.98737933
vt 0.32499045 0.69472924
vt 0.32549053 0.64769159
vt 0.35722156 0.91063430
vt 0.35722156 0.98737933
vt 0.36187219 0.85792062
vt 0.36187219 0.99999875
vt 0.40891250 0.85792062
vt 0.40891250 0.96989900
vt 0.40891250 0.99999875
vt 0.41468645 0.72483166
vt 0.41492575 0.78110477
vt 0.41492576 0.64776044
vt 0.41516492 0.69472999
vt 0.41540422 0.72483166
vt 0.41540434 0.37532351
vt 0.41540434 0.45206854
vt 0.41540434 0.52881357
vt 0.41540434 0.60555860
vt 0.41540434 0.68230363
vt 0.42046675 0.37532351
vt 0.42046675 0.45206854
vt 0.42046675 0.52881357
vt 0.42046675 0.60555860
vt 0.42046675 0.68230363
vt 0.45864017 0.0000000e+0
vt 0.45864017 0.11197854
vt 0.45864017 0.25405651
vt 0.45864017 0.57310563
vt 0.45864017 0.71518377
vt 0.45864017 0.72024617
vt 0.45864017 0.72900213
vt 0.45864017 0.73681296
vt 0.45864025 0.22572473
vt 0.45864049 0.11197854
vt 0.45864407 0.73175055
vt 0.45875220 0.73175055
vt 0.46329080 0.62021614
vt 0.46329080 0.69696116
vt 0.46518603 0.96989926
vt 0.46518858 0.85792062
vt 0.53877413 0.73687465
vt 0.53877803 0.73181225
vt 0.53878192 0.73687465
vt 0.59690890 0.72377484
vt 0.59702615 0.72821188
vt 0.61891199 0.73175055
vt 0.61891588 0.73681296
vt 0.62085012 0.11197888
vt 0.62086794 0.21697020
vt 0.62280960 0.22513591
vt 0.67996553 0.22454695
vt 0.68333876 0.21667554
vt 0.68375310 0.11197882
vt 0.71789799 0.57310563
vt 0.71789799 0.62021614
vt 0.73461387 0.73175055
vt 0.73494246 0.72024617
vt 0.77385076 0.71518377
vt 0.77385076 0.72024617
vt 0.77761965 0.22395780
vt 0.77790441 0.25405830
vt 0.77850140 0.62021614
vt 0.77850140 0.69696116
vt 0.78315203 0.57310563
vt 0.78315203 0.68685195
vt 0.78315203 0.71518377
vt 0.83396379 0.11197931
vt 0.83396394 0.22395773
vt 0.84023961 2.36945511
vt 0.84079342 -0.81420758
vt 0.87308734 6.9388939e-17
vt 0.87308734 0.11197854
vt 1.49166708 2.36945513
vt 1.49166715 0.75012361
vt 1.49166717 0.12216832
vt 1.49166724 -1.37737832
vt 2.31596695 6.8894619e-3
vt 2.31597071 1.99524562
vt 3.11811999 1.96223077
vt 3.11880699 -1.98805632
vn 3.1471792e-19 -1.00000000 7.0455827e-19
vn 0.99999088 -4.2013036e-3 -7.7365477e-4
vn 0.99998926 -4.5926881e-3 -6.2426268e-4
vn 0.99999201 -3.9521156e-3 -5.9868715e-4
vn 0.99998963 -4.5391939e-3 -3.7459903e-4
vn -2.3853317e-19 -1.00000000 1.8026630e-18
vn -0.99999707 -1.0928436e-3 2.1597727e-3
vn 0.0000000e+0 0.0000000e+0 1.00000000
vn -0.99999707 -1.0928436e-3 2.1597727e-3
vn 0.0000000e+0 0.0000000e+0 1.00000000
vn 0.0000000e+0 1.00000000 0.0000000e+0
vn 0.0000000e+0 0.0000000e+0 1.00000000
vn 0.0000000e+0 1.00000000 0.0000000e+0
vn 0.99999879 -1.5234412e-3 3.0676487e-4
vn 8.7697727e-19 -1.00000000 9.0133151e-19
vn 8.7697727e-19 -1.00000000 9.0133151e-19
vn 0.0000000e+0 0.0000000e+0 1.00000000
vn 0.99999879 -1.5234412e-3 3.0676487e-4
vn 0.99998833 -4.6996749e-3 -1.1235875e-3
vn -2.9567451e-15 0.0000000e+0 -1.00000000
vn 0.0000000e+0 1.00000000 -4.1542647e-17
vn -2.9567451e-15 0.0000000e+0 -1.00000000
vn 1.9924877e-18 -1.00000000 0.0000000e+0
vn -3.1093625e-15 -1.1168284e-16 -1.00000000
vn -3.1093625e-15 -1.1168284e-16 -1.00000000
vn 0.99999993 -3.4927595e-4 -1.4140707e-4
vn -3.7995722e-17 0.0000000e+0 -1.00000000
vn -3.7995722e-17 0.0000000e+0 -1.00000000
vn -0.99994349 0.0000000e+0 -1.0631035e-2
vn 0.0000000e+0 1.00000000 -4.1542647e-17
vn -8.0980079e-19 -1.00000000 3.1101180e-19
vn 0.0000000e+0 0.0000000e+0 -1.00000000
vn -0.99994349 0.0000000e+0 -1.0631035e-2
vn 0.0000000e+0 0.0000000e+0 -1.00000000
vn 7.6985454e-4 -7.6216216e-10 -0.99999970
vn 7.6985454e-4 -7.6216216e-10 -0.99999970
vn 0.0000000e+0 1.00000000 -4.1542647e-17
vn -0.99999839 -1.6850052e-3 -6.2422267e-4
vn -8.0980079e-19 -1.00000000 3.1101180e-19
vn 7.6985454e-4 1.8263809e-10 -0.99999970
vn 7.6985454e-4 1.8263809e-10 -0.99999970
vn -0.99999839 -1.6850052e-3 -6.2422267e-4
vn -8.0980079e-19 -1.00000000 3.1101180e-19
vn 7.6985455e-4 1.8249307e-10 -0.99999970
vn -0.99994349 0.0000000e+0 -1.0631035e-2
vn 7.6985455e-4 1.8249307e-10 -0.99999970
vn 7.6985455e-4 -7.6230718e-10 -0.99999970
vn -0.99994349 0.0000000e+0 -1.0631035e-2
vn 7.6985455e-4 -7.6230718e-10 -0.99999970
vn 0.0000000e+0 1.00000000 -4.1542647e-17
vn -5.2416698e-19 -1.00000000 1.0568374e-18
vn -5.2416698e-19 -1.00000000 1.0568374e-18
vn -0.99999874 -1.3889258e-3 7.6777580e-4
vn -0.99999874 -1.3889258e-3 7.6777580e-4
vn 5.9134347e-19 -1.00000000 1.5550590e-19
vn 5.9134347e-19 -1.00000000 1.5550590e-19
vn -1.9061318e-16 -1.1168284e-16 -1.00000000
vn -1.9061318e-16 -1.1168284e-16 -1.00000000
vn 2.5556786e-4 -1.0629354e-2 0.99994347
vn 0.0000000e+0 1.00000000 -4.1542647e-17
vn -0.99999839 -1.6850052e-3 -6.2422267e-4
vn 0.99998833 -4.6996749e-3 -1.1235875e-3
vn 2.5556786e-4 -1.0629354e-2 0.99994347
vn 0.0000000e+0 1.00000000 -4.1542647e-17
vn 0.0000000e+0 1.00000000 0.0000000e+0
vn 0.99999508 -3.1115628e-3 -4.0841192e-4
vn 0.99999508 -3.1115628e-3 -4.0841192e-4
vn 2.5556786e-4 -1.0629354e-2 0.99994347
vn -0.99999874 -1.3889258e-3 7.6777580e-4
vn 0.0000000e+0 1.00000000 0.0000000e+0
vn 2.5556786e-4 -1.0629354e-2 0.99994347
vn -0.99999874 -1.3889258e-3 7.6777580e-4
vn -1.9061318e-16 -1.1168284e-16 -1.00000000
vn -1.9061318e-16 -1.1168284e-16 -1.00000000
vn 0.0000000e+0 -1.00000000 0.0000000e+0
vn 0.0000000e+0 -1.00000000 0.0000000e+0
vn -3.1093625e-15 -1.1168284e-16 -1.00000000
vn 0.0000000e+0 -1.00000000 0.0000000e+0
vn 1.00000000 0.0000000e+0 0.0000000e+0
vn -3.1093625e-15 -1.1168284e-16 -1.00000000
vn -2.9567451e-15 0.0000000e+0 -1.00000000
vn 1.00000000 0.0000000e+0 0.0000000e+0
vn 0.0000000e+0 1.00000000 0.0000000e+0
vn -2.9567451e-15 0.0000000e+0 -1.00000000
vn -3.7995722e-17 0.0000000e+0 -1.00000000
vn -3.7995722e-17 0.0000000e+0 -1.00000000
vn 0.0000000e+0 1.00000000 0.0000000e+0
vn -1.00000000 0.0000000e+0 0.0000000e+0
vn 0.0000000e+0 0.0000000e+0 -1.00000000
vn 0.0000000e+0 0.0000000e+0 -1.00000000
vn 0.0000000e+0 -1.00000000 0.0000000e+0
vn -1.00000000 0.0000000e+0 0.0000000e+0
vn 7.6985454e-4 1.8263809e-10 -0.99999970
vn 7.6985454e-4 1.8263809e-10 -0.99999970
vn -0.99999970 0.0000000e+0 -7.6983581e-4
vn 0.0000000e+0 -1.00000000 0.0000000e+0
vn 7.6985455e-4 1.8249307e-10 -0.99999970
vn 7.6985455e-4 1.8249307e-10 -0.99999970
vn 0.0000000e+0 -1.00000000 0.0000000e+0
vn 0.99999970 0.0000000e+0 7.6989033e-4
vn 7.6985455e-4 -7.6230718e-10 -0.99999970
vn 7.6985455e-4 -7.6230718e-10 -0.99999970
vn 0.99999970 0.0000000e+0 7.6989033e-4
vn 0.0000000e+0 1.00000000 0.0000000e+0
vn 7.6985454e-4 -7.6216216e-10 -0.99999970
vn 7.6985454e-4 -7.6216216e-10 -0.99999970
vn -0.99999970 0.0000000e+0 -7.6983581e-4
vn 0.0000000e+0 1.00000000 0.0000000e+0
vn 0.0000000e+0 -1.00000000 0.0000000e+0
vn 0.0000000e+0 -1.00000000 0.0000000e+0
vn 0.0000000e+0 -1.00000000 0.0000000e+0
vn 1.00000000 0.0000000e+0 0.0000000e+0
vn 1.00000000 0.0000000e+0 0.0000000e+0
vn 0.0000000e+0 1.00000000 0.0000000e+0
vn 0.0000000e+0 1.00000000 0.0000000e+0
vn -1.00000000 0.0000000e+0 0.0000000e+0
vn 0.0000000e+0 -1.00000000 0.0000000e+0
vn -1.00000000 0.0000000e+0 0.0000000e+0
vn -0.99999970 0.0000000e+0 -7.6983581e-4
vn 0.0000000e+0 -1.00000000 0.0000000e+0
vn 0.0000000e+0 -1.00000000 0.0000000e+0
vn 0.99999970 0.0000000e+0 7.6989033e-4
vn 0.99999970 0.0000000e+0 7.6989033e-4
vn 0.0000000e+0 1.00000000 0.0000000e+0
vn -0.99999970 0.0000000e+0 -7.6983581e-4
vn 0.0000000e+0 1.00000000 0.0000000e+0
vn 0.99999661 -2.5244817e-3 -6.3249884e-4
vn -5.8374987e-15 0.0000000e+0 -1.00000000
vn 0.99999661 -2.5244817e-3 -6.3249884e-4
vn 1.9924877e-18 -1.00000000 0.0000000e+0
vn 0.99999993 -3.4927595e-4 -1.4140707e-4
vn 1.9924877e-18 -1.00000000 0.0000000e+0
vn 0.99999879 -1.5234412e-3 3.0676487e-4
g cube1_sep32_default
usemtl default
f 1/90/8 4/44/17 3/45/12 2/91/10
f 1/2/6 13/1/51 15/89/1 4/95/15
f 2/27/9 19/58/69 13/59/53 1/26/7
f 3/13/13 18/12/65 19/30/70 2/29/11
f 4/86/18 40/72/133 44/71/5 42/70/3 18/79/66 3/87/14
f 5/85/20 22/82/81 23/57/85 7/48/27
f 5/85/22 38/84/128 6/83/25 21/81/80 22/82/84
f 7/20/30 12/21/50 9/31/37 16/34/60 17/10/64 5/15/21
f 7/48/28 23/57/86 24/56/89 8/47/32
f 8/26/33 11/24/45 12/25/48 7/28/29
f 8/9/31 14/98/56 15/99/1 13/6/52 10/7/39 11/8/43
f 8/47/34 24/56/90 20/74/74 14/73/58
f 9/17/36 28/19/106 25/18/93 10/16/40
f 10/96/42 13/5/54 19/4/72 16/3/61 9/97/38
f 10/16/41 25/18/94 26/22/97 11/24/44
f 11/24/46 26/22/98 27/23/102 12/25/49
f 12/25/47 27/23/101 28/19/105 9/17/35
f 14/73/57 20/74/73 21/81/77 6/83/24
f 15/89/1 14/88/55 6/92/23 39/93/130 40/94/132 4/95/16
f 16/33/59 19/32/71 18/14/68 17/11/63
f 17/80/62 18/79/67 42/70/3 41/69/2 38/52/127 5/46/19
f 20/63/76 29/64/110 30/75/111 21/76/78
f 21/42/79 30/37/112 31/38/113 22/43/82
f 22/48/83 31/49/114 32/78/115 23/77/87
f 23/37/88 32/42/116 33/41/118 24/36/92
f 24/50/91 33/55/117 29/64/109 20/63/75
f 25/61/96 34/62/120 35/66/121 26/65/99
f 26/40/100 35/35/122 36/36/123 27/41/103
f 27/54/104 36/51/124 37/60/126 28/61/108
f 28/35/107 37/40/125 34/39/119 25/34/95
f 38/52/129 41/69/2 43/68/4 39/67/131 6/53/26
f 42/70/3 44/71/5 43/68/4 41/69/2
