# Exported from Wings 3D 1.0.2
mtllib PlasticTable.mtl
o cube1_sep8
#108 vertices, 84 faces
v 0.54768287 -0.47279211 -5.3912617e-3
v 0.52201929 -0.47279211 0.17310285
v 0.44710766 -0.47279211 0.33713643
v 0.32901688 -0.47279211 0.47342045
v 0.17731397 -0.47279211 0.57091399
v 4.2889793e-3 -0.47279211 0.62171871
v -0.17604063 -0.47279211 0.62171871
v -0.34906561 -0.47279211 0.57091399
v -0.50076853 -0.47279211 0.47342045
v -0.61885931 -0.47279211 0.33713643
v -0.69377093 -0.47279211 0.17310285
v -0.71943451 -0.47279211 -5.3912617e-3
v -0.69377093 -0.47279211 -0.18388537
v -0.61885931 -0.47279211 -0.34791895
v -0.50076853 -0.47279211 -0.48420297
v -0.34906561 -0.47279211 -0.58169652
v -0.17604063 -0.47279211 -0.63250124
v 4.2889793e-3 -0.47279211 -0.63250124
v 0.17731397 -0.47279211 -0.58169652
v 0.32901688 -0.47279211 -0.48420297
v 0.44710766 -0.47279211 -0.34791895
v 0.52201929 -0.47279211 -0.18388537
v 0.50432954 0.12394081 0.16790867
v 0.52924631 0.12394081 -5.3912617e-3
v 0.50432954 0.12394081 -0.17869119
v 0.43159784 0.12394081 -0.33795139
v 0.31694351 0.12394081 -0.47026955
v 0.16965514 0.12394081 -0.56492603
v 1.6651836e-3 0.12394081 -0.61425234
v -0.17341683 0.12394081 -0.61425234
v -0.34140679 0.12394081 -0.56492603
v -0.48869515 0.12394081 -0.47026955
v -0.60334949 0.12394081 -0.33795139
v -0.67608118 0.12394081 -0.17869119
v -0.70099795 0.12394081 -5.3912617e-3
v -0.67608118 0.12394081 0.16790867
v -0.60334949 0.12394081 0.32716887
v -0.48869515 0.12394081 0.45948703
v -0.34140679 0.12394081 0.55414351
v -0.17341683 0.12394081 0.60346981
v 1.6651836e-3 0.12394081 0.60346981
v 0.16965514 0.12394081 0.55414351
v 0.31694351 0.12394081 0.45948703
v 0.43159784 0.12394081 0.32716887
v 0.44454461 0.12222067 4.1155428e-2
v 0.44938032 0.12222067 6.7241163e-3
v 0.41207241 0.12222067 3.6772146e-2
v 0.41565008 0.12222067 2.9000347e-3
v 0.45247934 0.12222067 2.4623719e-2
v 0.40834437 0.12222067 1.9152143e-2
v 0.42760740 0.12222067 4.4655739e-2
v 0.43321632 0.12222067 -8.7987634e-4
v 0.51678792 0.12394081 8.1258704e-2
v 0.37427067 0.12394081 0.39332795
v -0.68853957 0.12394081 -9.2041227e-2
v 0.46796369 0.12394081 -0.25832129
v 0.42760740 0.10896051 4.4655739e-2
v 0.44454461 0.10896051 4.1155428e-2
v 0.45247934 0.10896051 2.4623719e-2
v 0.44938032 0.10896051 6.7241163e-3
v 0.43321632 0.10896051 -8.7987634e-4
v 0.41565008 0.10896051 2.9000347e-3
v 0.40834437 0.10896051 1.9152143e-2
v 0.41207241 0.10896051 3.6772146e-2
v 0.54768287 0.11830991 -5.3912617e-3
v 0.54314913 0.12394081 -5.3912617e-3
v 0.51766920 0.12394081 0.17182555
v 0.52201929 0.11830991 0.17310285
v 0.44329364 0.12394081 0.33468530
v 0.44710766 0.11830991 0.33713643
v 0.32604792 0.12394081 0.46999408
v 0.32901688 0.11830991 0.47342045
v 0.17543059 0.12394081 0.56678996
v 0.17731397 0.11830991 0.57091399
v 3.6437612e-3 0.12394081 0.61723112
v 4.2889793e-3 0.11830991 0.62171871
v -0.17539541 0.12394081 0.61723112
v -0.17604063 0.11830991 0.62171871
v -0.34718223 0.12394081 0.56678996
v -0.34906561 0.11830991 0.57091399
v -0.49779956 0.12394081 0.46999408
v -0.50076853 0.11830991 0.47342045
v -0.61504528 0.12394081 0.33468530
v -0.61885931 0.11830991 0.33713643
v -0.68942084 0.12394081 0.17182555
v -0.69377093 0.11830991 0.17310285
v -0.71490077 0.12394081 -5.3912617e-3
v -0.71943451 0.11830991 -5.3912617e-3
v -0.68942084 0.12394081 -0.18260807
v -0.69377093 0.11830991 -0.18388537
v -0.61504528 0.12394081 -0.34546783
v -0.61885931 0.11830991 -0.34791895
v -0.49779956 0.12394081 -0.48077660
v -0.50076853 0.11830991 -0.48420297
v -0.34718223 0.12394081 -0.57757248
v -0.34906561 0.11830991 -0.58169652
v -0.17539541 0.12394081 -0.62801365
v -0.17604063 0.11830991 -0.63250124
v 3.6437612e-3 0.12394081 -0.62801365
v 4.2889793e-3 0.11830991 -0.63250124
v 0.17543059 0.12394081 -0.57757248
v 0.17731397 0.11830991 -0.58169652
v 0.32604792 0.12394081 -0.48077660
v 0.32901688 0.11830991 -0.48420297
v 0.44329364 0.12394081 -0.34546783
v 0.44710766 0.11830991 -0.34791895
v 0.51766920 0.12394081 -0.18260807
v 0.52201929 0.11830991 -0.18388537
vt 0.0000000e+0 1.3907190e-3
vt 0.0000000e+0 0.24917722
vt 0.0000000e+0 0.49430653
vt 0.0000000e+0 0.74774108
vt 0.0000000e+0 0.98920002
vt 3.7631958e-6 1.00000000
vt 1.1473004e-3 0.23926465
vt 1.2896280e-3 0.48695023
vt 1.4344702e-3 0.24218503
vt 1.5821148e-3 0.48988210
vt 2.2880961e-3 0.24776395
vt 2.4488811e-3 0.49548217
vt 1.0057858e-2 0.56467690
vt 1.0323335e-2 0.81954146
vt 1.0323335e-2 0.67594071
vt 1.4503583e-2 0.98917794
vt 1.4527064e-2 0.99997344
vt 2.0140395e-2 0.63504498
vt 2.0362059e-2 0.35355571
vt 2.9135883e-2 0.98915228
vt 2.9141503e-2 0.99992223
vt 4.0457006e-2 0.88552499
vt 4.0457006e-2 0.60995717
vt 4.3611645e-2 0.99993307
vt 4.3624183e-2 0.98918860
vt 5.8327085e-2 0.98920002
vt 5.8334479e-2 0.99994027
vt 5.8334479e-2 0.99989532
vt 5.8341306e-2 0.98915228
vt 7.2537796e-2 0.24878455
vt 7.2569295e-2 1.0404453e-3
vt 7.3182738e-2 0.99992264
vt 7.3203648e-2 0.98917352
vt 7.3427879e-2 0.24714511
vt 7.3624851e-2 0.23869973
vt 7.3645362e-2 0.24158613
vt 7.3714189e-2 0.48627315
vt 7.3738824e-2 0.48915225
vt 7.3786341e-2 0.49473498
vt 7.9123797e-2 0.76444485
vt 7.9481717e-2 0.22426612
vt 8.7217737e-2 0.99996132
vt 8.7222683e-2 0.98919134
vt 8.7959761e-2 0.94034609
vt 8.7959761e-2 0.55513607
vt 0.10138442 0.98916583
vt 0.10139518 0.99995666
vt 0.10985279 0.24716995
vt 0.11605390 0.99994933
vt 0.11605705 0.98915228
vt 0.14508044 0.24844543
vt 0.14514154 7.3076938e-4
vt 0.14598728 0.48596576
vt 0.14599602 0.48886196
vt 0.14600549 0.23841195
vt 0.14601274 0.49447887
vt 0.14601944 0.24131738
vt 0.14631070 0.24692452
vt 0.14898321 0.97956348
vt 0.14898321 0.51591868
vt 0.17220482 0.87197517
vt 0.17265701 0.11688152
vt 0.21764545 0.24816163
vt 0.21772786 4.6367771e-4
vt 0.21828862 0.48577591
vt 0.21829435 0.48867477
vt 0.21830531 0.49429697
vt 0.21836149 0.23814267
vt 0.21837218 0.24103719
vt 0.21839297 0.24665037
vt 0.21858360 1.00000000
vt 0.21858360 0.49548217
vt 0.29024599 0.24793459
vt 0.29034275 2.5306968e-4
vt 0.29062643 0.48569008
vt 0.29062882 0.48859040
vt 0.29063330 0.49421531
vt 0.29071585 0.23804348
vt 0.29071626 0.24094429
vt 0.29071663 0.24656996
vt 0.29112231 1.00000000
vt 0.29112231 0.49548217
vt 0.29179985 0.94893802
vt 0.29234581 4.0011464e-2
vt 0.36072270 0.97956348
vt 0.36072270 0.51591868
vt 0.36289554 0.24776395
vt 0.36299953 9.8773910e-5
vt 0.36300931 0.49423979
vt 0.36301368 0.48861018
vt 0.36301579 0.48570740
vt 0.36311440 0.24661598
vt 0.36311810 0.24096110
vt 0.36312005 0.23804561
vt 0.42174614 0.94034609
vt 0.42174614 0.55513607
vt 0.42822370 0.98908555
vt 0.42881005 0.0000000e+0
vt 0.43547388 0.48581686
vt 0.43547555 0.48873222
vt 0.43547867 0.49438684
vt 0.43557707 0.23794602
vt 0.43557919 0.24084916
vt 0.43558342 0.24647947
vt 0.43560806 0.24786009
vt 0.43571139 0.0000000e+0
vt 0.46924890 0.88552499
vt 0.46924890 0.60995717
vt 0.49938257 0.81954146
vt 0.49938257 0.67594071
vt 0.50787114 0.49434433
vt 0.50787747 0.48872558
vt 0.50788067 0.48582830
vt 0.50796300 0.24646594
vt 0.50796669 0.24083969
vt 0.50796868 0.23793867
vt 0.50826987 0.24801285
vt 0.50836394 1.6868091e-4
vt 0.50970591 0.50574115
vt 0.50970591 0.74774108
vt 0.51120553 0.49865339
vt 0.51264467 0.51227866
vt 0.51745458 0.49548217
vt 0.51971080 0.51379915
vt 0.52426768 0.49689019
vt 0.52621287 0.51074040
vt 0.52745947 0.50354017
vt 0.57043513 0.98915228
vt 0.57099722 1.0307757e-4
vt 0.57998739 0.49452064
vt 0.58026719 0.48891264
vt 0.58027487 0.48600511
vt 0.58029577 0.24655613
vt 0.58030740 0.24093425
vt 0.58031353 0.23803545
vt 0.58089398 0.24822163
vt 0.58097084 3.9401386e-4
vt 0.61646370 0.49473483
vt 0.65258627 0.24674158
vt 0.65261120 0.24113170
vt 0.65262416 0.23823901
vt 0.65268079 0.48909203
vt 0.65268643 0.48619015
vt 0.65293279 0.49468620
vt 0.65349261 0.24847266
vt 0.65354540 6.7579588e-4
vt 0.70686832 0.94917089
vt 0.70743270 4.0216280e-2
vt 0.72462157 0.24710294
vt 0.72475739 0.49492861
vt 0.72492346 0.24150885
vt 0.72494797 0.23861876
vt 0.72504769 0.48934164
vt 0.72506724 0.48645379
vt 0.72607511 0.24876529
vt 0.72610232 1.0124821e-3
vt 0.76095593 0.24745496
vt 0.76109270 0.49526806
vt 0.79629200 0.24768502
vt 0.79643845 0.49548217
vt 0.79712746 0.24213917
vt 0.79727180 0.48992926
vt 0.79741478 0.23921657
vt 0.79755756 0.48700419
vt 0.79865354 0.24909939
vt 0.79865644 1.3907190e-3
vt 0.82650979 0.87239642
vt 0.82700047 0.11722103
vt 0.87350362 0.17101442
vt 0.90101320 0.47492172
vt 0.90405299 0.46060849
vt 0.90694397 0.48811225
vt 0.91669073 0.45422578
vt 0.91970295 0.76497357
vt 0.92005060 0.22476416
vt 0.92121700 0.49114963
vt 0.93044428 0.45707891
vt 0.93435556 0.48494601
vt 0.93686999 0.47039245
vt 0.94928525 0.70030158
vt 0.97889201 0.63565012
vt 0.97904690 0.35413928
vt 0.98911462 0.42446644
vt 0.99927470 0.49482673
vn 0.94287385 0.33314998 -1.4094707e-16
vn 0.43042992 0.90262400 -1.2347058e-16
vn 0.41299448 0.90262400 0.12126612
vn 0.90468083 0.33314998 0.26563826
vn 0.36210069 0.90262400 0.23270798
vn 0.79319596 0.33314998 0.50975609
vn 0.28187165 0.90262400 0.32529723
vn 0.61745106 0.33314998 0.71257651
vn 0.17880705 0.90262400 0.39153283
vn 0.39168395 0.33314998 0.85766822
vn 6.1256564e-2 0.90262400 0.42604876
vn 0.13418494 0.33314998 0.93327675
vn -6.1256564e-2 0.90262400 0.42604876
vn -0.13418494 0.33314998 0.93327675
vn -0.17880705 0.90262400 0.39153283
vn -0.39168395 0.33314998 0.85766822
vn -0.28187165 0.90262400 0.32529723
vn -0.61745106 0.33314998 0.71257651
vn -0.36210069 0.90262400 0.23270798
vn -0.79319596 0.33314998 0.50975609
vn -0.41299448 0.90262400 0.12126612
vn -0.90468083 0.33314998 0.26563826
vn -0.43042992 0.90262400 -1.2347058e-16
vn -0.94287385 0.33314998 -9.6437467e-17
vn -0.41299448 0.90262400 -0.12126612
vn -0.90468083 0.33314998 -0.26563826
vn -0.36210069 0.90262400 -0.23270798
vn -0.79319596 0.33314998 -0.50975609
vn -0.28187165 0.90262400 -0.32529723
vn -0.61745106 0.33314998 -0.71257651
vn -0.17880705 0.90262400 -0.39153283
vn -0.39168395 0.33314998 -0.85766822
vn -6.1256564e-2 0.90262400 -0.42604876
vn -0.13418494 0.33314998 -0.93327675
vn 6.1256564e-2 0.90262400 -0.42604876
vn 0.13418494 0.33314998 -0.93327675
vn 0.17880705 0.90262400 -0.39153283
vn 0.39168395 0.33314998 -0.85766822
vn 0.28187165 0.90262400 -0.32529723
vn 0.61745106 0.33314998 -0.71257651
vn 0.36210069 0.90262400 -0.23270798
vn 0.79319596 0.33314998 -0.50975609
vn 0.41299448 0.90262400 -0.12126612
vn 0.90468083 0.33314998 -0.26563826
vn 0.0000000e+0 -1.00000000 -6.6937281e-17
vn 1.00000000 -6.4224978e-20 0.0000000e+0
vn 1.00000000 -6.4224978e-20 0.0000000e+0
vn 0.0000000e+0 -1.00000000 -6.6937281e-17
vn 0.95949297 -8.2850221e-18 0.28173256
vn 0.95949297 -8.2850221e-18 0.28173256
vn 0.0000000e+0 -1.00000000 -6.6937281e-17
vn 0.84125353 -8.2207971e-18 0.54064082
vn 0.84125353 -8.2207971e-18 0.54064082
vn 0.0000000e+0 -1.00000000 -6.6937281e-17
vn 0.65486073 0.0000000e+0 0.75574957
vn 0.65486073 0.0000000e+0 0.75574957
vn 0.0000000e+0 -1.00000000 -6.6937281e-17
vn 0.41541501 3.2883188e-17 0.90963200
vn 0.41541501 3.2883188e-17 0.90963200
vn 0.0000000e+0 -1.00000000 -6.6937281e-17
vn 0.14231484 3.2883188e-17 0.98982144
vn 0.14231484 3.2883188e-17 0.98982144
vn 0.0000000e+0 -1.00000000 -6.6937281e-17
vn -0.14231484 -3.2883188e-17 0.98982144
vn -0.14231484 -3.2883188e-17 0.98982144
vn 0.0000000e+0 -1.00000000 -6.6937281e-17
vn -0.41541501 -3.2883188e-17 0.90963200
vn -0.41541501 -3.2883188e-17 0.90963200
vn 0.0000000e+0 -1.00000000 -6.6937281e-17
vn -0.65486073 0.0000000e+0 0.75574957
vn -0.65486073 0.0000000e+0 0.75574957
vn 0.0000000e+0 -1.00000000 -6.6937281e-17
vn -0.84125353 -8.2207971e-18 0.54064082
vn -0.84125353 -8.2207971e-18 0.54064082
vn 0.0000000e+0 -1.00000000 -6.6937281e-17
vn -0.95949297 -8.2207971e-18 0.28173256
vn -0.95949297 -8.2207971e-18 0.28173256
vn 0.0000000e+0 -1.00000000 -6.6937281e-17
vn -1.00000000 5.7802480e-19 0.0000000e+0
vn -1.00000000 5.7802480e-19 0.0000000e+0
vn 0.0000000e+0 -1.00000000 -6.6937281e-17
vn -0.95949297 8.7988219e-18 -0.28173256
vn -0.95949297 8.7988219e-18 -0.28173256
vn 0.0000000e+0 -1.00000000 -6.6937281e-17
vn -0.84125353 -8.2207971e-18 -0.54064082
vn -0.84125353 -8.2207971e-18 -0.54064082
vn 0.0000000e+0 -1.00000000 -6.6937281e-17
vn -0.65486073 -4.9324783e-17 -0.75574957
vn -0.65486073 -4.9324783e-17 -0.75574957
vn 0.0000000e+0 -1.00000000 -6.6937281e-17
vn -0.41541501 -3.2883188e-17 -0.90963200
vn -0.41541501 -3.2883188e-17 -0.90963200
vn 0.0000000e+0 -1.00000000 -6.6937281e-17
vn -0.14231484 0.0000000e+0 -0.98982144
vn -0.14231484 0.0000000e+0 -0.98982144
vn 0.0000000e+0 -1.00000000 -6.6937281e-17
vn 0.14231484 0.0000000e+0 -0.98982144
vn 0.14231484 0.0000000e+0 -0.98982144
vn 0.0000000e+0 -1.00000000 -6.6937281e-17
vn 0.41541501 0.0000000e+0 -0.90963200
vn 0.41541501 0.0000000e+0 -0.90963200
vn 0.0000000e+0 -1.00000000 -6.6937281e-17
vn 0.65486073 1.6441594e-17 -0.75574957
vn 0.65486073 1.6441594e-17 -0.75574957
vn 0.0000000e+0 -1.00000000 -6.6937281e-17
vn 0.84125353 2.4662391e-17 -0.54064082
vn 0.84125353 2.4662391e-17 -0.54064082
vn 0.0000000e+0 -1.00000000 -6.6937281e-17
vn 0.95949297 8.2207971e-18 -0.28173256
vn 0.95949297 8.2207971e-18 -0.28173256
vn -1.6709665e-2 0.99984280 -5.9292534e-3
vn 0.0000000e+0 1.00000000 4.4496782e-17
vn 0.0000000e+0 1.00000000 4.4496782e-17
vn 3.5597425e-16 1.00000000 4.4496782e-17
vn 3.5597425e-16 1.00000000 4.4496782e-17
vn -2.1830889e-2 0.99976093 1.2223590e-3
vn 3.5597425e-16 1.00000000 1.7798713e-16
vn 3.5597425e-16 1.00000000 1.7798713e-16
vn -1.5742297e-2 0.99986989 3.5176445e-3
vn -1.5742297e-2 0.99986989 3.5176445e-3
vn 3.5597425e-16 1.00000000 1.7798713e-16
vn 3.5597425e-16 1.00000000 1.7798713e-16
vn -3.3996206e-3 0.99998815 3.4859577e-3
vn -3.3996206e-3 0.99998815 3.4859577e-3
vn 3.5597425e-16 1.00000000 0.0000000e+0
vn 3.5597425e-16 1.00000000 0.0000000e+0
vn 4.2649216e-4 0.99999823 1.8341527e-3
vn 8.8993563e-17 1.00000000 0.0000000e+0
vn 8.8993563e-17 1.00000000 0.0000000e+0
vn 4.2649216e-4 0.99999823 1.8341527e-3
vn 8.8993563e-17 1.00000000 0.0000000e+0
vn 8.8993563e-17 1.00000000 0.0000000e+0
vn 4.2649216e-4 0.99999823 1.8341527e-3
vn -1.7798713e-16 1.00000000 0.0000000e+0
vn -1.7798713e-16 1.00000000 0.0000000e+0
vn 4.2649216e-4 0.99999823 1.8341527e-3
vn -1.7798713e-16 1.00000000 0.0000000e+0
vn -1.7798713e-16 1.00000000 0.0000000e+0
vn 4.2649216e-4 0.99999823 1.8341527e-3
vn -3.5597425e-16 1.00000000 0.0000000e+0
vn -3.5597425e-16 1.00000000 0.0000000e+0
vn 4.2649216e-4 0.99999823 1.8341527e-3
vn 3.7520197e-29 1.00000000 0.0000000e+0
vn 3.7520197e-29 1.00000000 0.0000000e+0
vn 4.2649216e-4 0.99999823 1.8341527e-3
vn 3.5597425e-16 1.00000000 -4.4496782e-17
vn 3.5597425e-16 1.00000000 -4.4496782e-17
vn 4.2649216e-4 0.99999823 1.8341527e-3
vn -3.5597425e-16 1.00000000 -4.4496782e-17
vn -3.5597425e-16 1.00000000 -4.4496782e-17
vn 8.4598126e-4 0.99999852 -1.5000901e-3
vn -3.5597425e-16 1.00000000 0.0000000e+0
vn -3.5597425e-16 1.00000000 0.0000000e+0
vn 8.4598126e-4 0.99999852 -1.5000901e-3
vn -1.7798713e-16 1.00000000 0.0000000e+0
vn -1.7798713e-16 1.00000000 0.0000000e+0
vn 8.4598126e-4 0.99999852 -1.5000901e-3
vn -1.7798713e-16 1.00000000 0.0000000e+0
vn -1.7798713e-16 1.00000000 0.0000000e+0
vn 8.4598126e-4 0.99999852 -1.5000901e-3
vn -8.8993563e-17 1.00000000 0.0000000e+0
vn -8.8993563e-17 1.00000000 0.0000000e+0
vn 8.4598126e-4 0.99999852 -1.5000901e-3
vn -8.8993563e-17 1.00000000 0.0000000e+0
vn -8.8993563e-17 1.00000000 0.0000000e+0
vn 8.4598126e-4 0.99999852 -1.5000901e-3
vn 1.7798713e-16 1.00000000 0.0000000e+0
vn 1.7798713e-16 1.00000000 0.0000000e+0
vn 8.4598126e-4 0.99999852 -1.5000901e-3
vn 1.7798713e-16 1.00000000 0.0000000e+0
vn 1.7798713e-16 1.00000000 0.0000000e+0
vn 8.4598126e-4 0.99999852 -1.5000901e-3
vn 0.0000000e+0 1.00000000 -1.7798713e-16
vn 0.0000000e+0 1.00000000 -1.7798713e-16
vn -1.6849821e-3 0.99999285 -3.3856611e-3
vn -1.6849821e-3 0.99999285 -3.3856611e-3
vn -1.1173159e-2 0.99991976 -5.9691738e-3
vn 0.0000000e+0 1.00000000 -1.7798713e-16
vn 0.0000000e+0 1.00000000 -1.7798713e-16
vn -1.1173159e-2 0.99991976 -5.9691738e-3
vn -1.1173159e-2 0.99991976 -5.9691738e-3
vn -1.1173159e-2 0.99991976 -5.9691738e-3
vn -0.61591568 0.0000000e+0 -0.78781208
vn -0.61591568 0.0000000e+0 -0.78781208
vn -1.5742297e-2 0.99986989 3.5176445e-3
vn -1.5742297e-2 0.99986989 3.5176445e-3
vn -0.79532091 1.8812660e-18 0.60618862
vn -0.79532091 1.8812660e-18 0.60618862
vn -1.6849821e-3 0.99999285 -3.3856611e-3
vn -1.6849821e-3 0.99999285 -3.3856611e-3
vn 0.79314156 0.0000000e+0 -0.60903732
vn 0.79314156 0.0000000e+0 -0.60903732
vn -3.3996206e-3 0.99998815 3.4859577e-3
vn -3.3996206e-3 0.99998815 3.4859577e-3
vn 0.62890473 0.0000000e+0 0.77748237
vn 0.62890473 0.0000000e+0 0.77748237
vn -1.9270464e-2 0.99981154 -2.3534699e-3
vn -1.9270464e-2 0.99981154 -2.3534699e-3
vn -0.99048884 7.3834858e-18 -0.13759311
vn -0.99048884 7.3834858e-18 -0.13759311
vn 6.3623761e-4 0.99999978 1.6703153e-4
vn 6.3623761e-4 0.99999978 1.6703153e-4
vn 0.99428347 0.0000000e+0 0.10677254
vn 0.99428347 0.0000000e+0 0.10677254
vn -4.9261209e-3 0.99997196 -5.6400565e-3
vn -4.9261209e-3 0.99997196 -5.6400565e-3
vn 0.13251588 0.0000000e+0 -0.99118088
vn 0.13251588 0.0000000e+0 -0.99118088
vn -8.4393629e-3 0.99994940 5.4752460e-3
vn -8.4393629e-3 0.99994940 5.4752460e-3
vn -0.11363516 -5.6618153e-18 0.99352255
vn -0.11363516 -5.6618153e-18 0.99352255
vn -1.9270464e-2 0.99981154 -2.3534699e-3
vn 0.0000000e+0 1.00000000 8.8993563e-17
vn -1.9270464e-2 0.99981154 -2.3534699e-3
vn 0.0000000e+0 1.00000000 -3.5597425e-16
vn -4.9261209e-3 0.99997196 -5.6400565e-3
vn -4.9261209e-3 0.99997196 -5.6400565e-3
vn 0.0000000e+0 1.00000000 -8.8993563e-17
vn 6.3623761e-4 0.99999978 1.6703153e-4
vn 6.3623761e-4 0.99999978 1.6703153e-4
vn 0.0000000e+0 1.00000000 3.5597425e-16
vn -8.4393629e-3 0.99994940 5.4752460e-3
vn -8.4393629e-3 0.99994940 5.4752460e-3
vn 0.0000000e+0 1.00000000 0.0000000e+0
vn 0.13251588 0.0000000e+0 -0.99118088
vn 0.13251588 0.0000000e+0 -0.99118088
vn 0.0000000e+0 1.00000000 0.0000000e+0
vn -0.61591568 0.0000000e+0 -0.78781208
vn -0.61591568 0.0000000e+0 -0.78781208
vn 0.0000000e+0 1.00000000 0.0000000e+0
vn -0.99048884 7.3834858e-18 -0.13759311
vn -0.99048884 7.3834858e-18 -0.13759311
vn 0.0000000e+0 1.00000000 0.0000000e+0
vn -0.79532091 1.8812660e-18 0.60618862
vn -0.79532091 1.8812660e-18 0.60618862
vn 0.0000000e+0 1.00000000 0.0000000e+0
vn -0.11363516 -5.6618153e-18 0.99352255
vn -0.11363516 -5.6618153e-18 0.99352255
vn 0.0000000e+0 1.00000000 0.0000000e+0
vn 0.62890473 0.0000000e+0 0.77748237
vn 0.62890473 0.0000000e+0 0.77748237
vn 0.0000000e+0 1.00000000 0.0000000e+0
vn 0.99428347 0.0000000e+0 0.10677254
vn 0.99428347 0.0000000e+0 0.10677254
vn 0.0000000e+0 1.00000000 0.0000000e+0
vn 0.79314156 0.0000000e+0 -0.60903732
vn 0.79314156 0.0000000e+0 -0.60903732
g cube1_sep8_dark
usemtl dark
f 1/165/47 65/164/1 68/154/4 2/155/50
f 2/15/48 3/23/51 4/45/54 5/60/57 6/72/60 7/82/63 8/86/66 9/96/69 10/108/72 11/110/75 12/120/78 13/109/81 14/107/84 15/95/87 16/85/90 17/81/93 18/71/96 19/59/99 20/44/102 21/22/105 22/14/108 1/4/45
f 2/155/49 68/154/4 70/143/6 3/145/53
f 3/145/52 70/143/6 72/132/8 4/136/56
f 4/136/55 72/132/8 74/113/10 5/117/59
f 5/117/58 74/113/10 76/99/12 6/105/62
f 6/105/61 76/99/12 78/91/14 7/87/65
f 7/87/64 78/91/14 80/75/16 8/73/68
f 8/73/67 80/75/16 82/65/18 9/63/71
f 9/63/70 82/65/18 84/53/20 10/51/74
f 10/51/73 84/53/20 86/37/22 11/30/77
f 11/30/76 86/37/22 88/8/24 12/2/80
f 12/166/79 88/163/24 90/152/26 13/156/83
f 13/156/82 90/152/26 92/141/28 14/146/86
f 14/146/85 92/141/28 94/135/30 15/137/89
f 15/137/88 94/135/30 96/116/32 16/118/92
f 16/118/91 96/116/32 98/102/34 17/106/95
f 17/106/94 98/102/34 100/94/36 18/88/98
f 18/88/97 100/94/36 102/78/38 19/74/101
f 19/74/100 102/78/38 104/68/40 20/64/104
f 20/64/103 104/68/40 106/55/42 21/52/107
f 21/52/106 106/55/42 108/35/44 22/31/110
f 22/31/109 108/35/44 65/7/1 1/1/46
f 24/11/115 66/9/2 107/36/43 25/34/117
f 26/58/122 105/57/41 103/69/39 27/70/125
f 27/70/126 103/69/39 101/79/37 28/80/128
f 28/80/129 101/79/37 99/93/35 29/92/131
f 29/92/132 99/93/35 97/103/33 30/104/134
f 30/104/135 97/103/33 95/115/31 31/114/137
f 31/114/138 95/115/31 93/134/29 32/133/140
f 32/133/141 93/134/29 91/140/27 33/139/143
f 33/139/144 91/140/27 89/151/25 34/149/146
f 35/12/150 87/10/23 85/38/21 36/39/152
f 36/39/153 85/38/21 83/54/19 37/56/155
f 37/56/156 83/54/19 81/66/17 38/67/158
f 38/67/159 81/66/17 79/76/15 39/77/161
f 39/77/162 79/76/15 77/90/13 40/89/164
f 40/89/165 77/90/13 75/100/11 41/101/167
f 41/101/168 75/100/11 73/112/9 42/111/170
f 42/111/171 73/112/9 71/131/7 43/130/173
f 44/144/179 69/142/5 67/153/3 23/150/113
f 53/158/214 23/150/112 67/153/3 66/162/2 24/160/114
f 54/138/216 43/130/174 71/131/7 69/142/5 44/144/178
f 55/157/219 34/149/147 89/151/25 87/161/23 35/159/149
f 56/48/222 25/34/118 107/36/43 105/57/41 26/58/121
f 58/125/228 59/127/231 60/126/234 61/124/237 62/122/240 63/119/243 64/121/246 57/123/225
f 65/7/1 108/35/44 107/36/43 66/9/2
f 67/153/3 69/142/5 70/143/6 68/154/4
f 68/154/4 65/164/1 66/162/2 67/153/3
f 72/132/8 70/143/6 69/142/5 71/131/7
f 74/113/10 72/132/8 71/131/7 73/112/9
f 76/99/12 74/113/10 73/112/9 75/100/11
f 78/91/14 76/99/12 75/100/11 77/90/13
f 80/75/16 78/91/14 77/90/13 79/76/15
f 82/65/18 80/75/16 79/76/15 81/66/17
f 84/53/20 82/65/18 81/66/17 83/54/19
f 86/37/22 84/53/20 83/54/19 85/38/21
f 88/8/24 86/37/22 85/38/21 87/10/23
f 90/152/26 88/163/24 87/161/23 89/151/25
f 92/141/28 90/152/26 89/151/25 91/140/27
f 94/135/30 92/141/28 91/140/27 93/134/29
f 96/116/32 94/135/30 93/134/29 95/115/31
f 98/102/34 96/116/32 95/115/31 97/103/33
f 100/94/36 98/102/34 97/103/33 99/93/35
f 102/78/38 100/94/36 99/93/35 101/79/37
f 104/68/40 102/78/38 101/79/37 103/69/39
f 106/55/42 104/68/40 103/69/39 105/57/41
f 108/35/44 106/55/42 105/57/41 107/36/43
g cube1_sep8_white
usemtl white
f 23/182/111 53/183/213 49/179/197 45/177/181 44/175/177
f 24/184/116 25/181/120 46/178/186 49/179/198 53/183/215
f 25/181/119 56/180/223 52/176/209 46/178/185
f 26/174/124 48/172/194 52/176/210 56/180/224
f 27/167/127 28/147/130 29/128/133 30/97/136 31/83/139 32/61/142 33/40/145 34/18/148 55/13/220 50/170/201 48/172/193 26/174/123
f 35/3/151 36/19/154 37/41/157 38/62/160 39/84/163 40/98/166 41/129/169 42/148/172 43/168/176 47/171/190 50/170/202 55/13/221
f 43/168/175 54/169/217 51/173/205 47/171/189
f 44/175/180 45/177/182 51/173/206 54/169/218
f 45/32/183 58/33/229 57/43/226 51/42/207
f 46/24/187 60/25/235 59/26/233 49/27/200
f 47/47/191 64/46/247 63/50/245 50/49/204
f 48/17/195 62/16/241 61/20/239 52/21/212
f 49/28/199 59/29/232 58/33/230 45/32/184
f 50/6/203 63/5/244 62/16/242 48/17/196
f 51/42/208 57/43/227 64/46/248 47/47/192
f 52/21/211 61/20/238 60/25/236 46/24/188
