# Exported from Wings 3D 1.0.2
mtllib PlasticBench.mtl
o cube1_sep9
#120 vertices, 117 faces
v -1.12235605 -8.7937115e-2 0.94004442
v -1.08354348 -8.7937115e-2 0.94004442
v -1.12235605 -8.7937115e-2 0.90123184
v -1.08354348 -8.7937115e-2 0.90123184
v -1.12235605 -8.7937115e-2 -0.93980201
v -1.08354348 -8.7937115e-2 -0.93980201
v -1.12235605 -8.7937115e-2 -0.90098944
v -1.08354348 -8.7937115e-2 -0.90098944
v -1.12235605 -0.57056096 0.90639005
v -1.12235605 -0.53690660 0.94004442
v -1.08354348 -0.57056096 0.90639005
v -1.08354348 -0.53690660 0.94004442
v -1.12235605 -0.53005236 0.86219561
v -1.12235605 -0.49101613 0.90123184
v -1.08354348 -0.53005236 0.86219561
v -1.08354348 -0.49101613 0.90123184
v -1.12235605 -0.57056096 -0.90614765
v -1.12235605 -0.53690660 -0.93980201
v -1.08354348 -0.57056096 -0.90614765
v -1.08354348 -0.53690660 -0.93980201
v -1.12235605 -0.53005236 -0.86195320
v -1.12235605 -0.49101613 -0.90098944
v -1.08354348 -0.53005236 -0.86195320
v -1.08354348 -0.49101613 -0.90098944
v -1.12987635 0.21190942 0.99991920
v -1.12987635 -0.16341485 0.99991920
v 0.78566341 -0.16341485 0.99991920
v 0.78393641 0.90224324 0.99991920
v -1.17210647 -0.16341485 0.95768908
v -1.17210647 0.21190942 0.95768908
v -1.17210647 0.21190942 -0.95785068
v -1.17210647 -0.16341485 -0.95785068
v -1.12987635 0.25042328 0.95768908
v 0.78393641 0.94075711 0.95768908
v 0.78393641 0.94075711 -0.95785068
v -1.12987635 0.25042328 -0.95785068
v -1.12987635 -0.16341485 -1.00008080
v -1.12987635 0.21190942 -1.00008080
v 0.78393641 0.90224324 -1.00008080
v 0.78566341 -0.16341485 -1.00008080
v 0.82616653 0.90224324 0.95768908
v 0.82789353 -0.16341485 0.95768908
v 0.82789353 -0.16341485 -0.95785068
v 0.82616653 0.90224324 -0.95785068
v 0.78566341 -0.20192872 0.95768908
v -1.12987635 -0.20192872 0.95768908
v -1.12987635 -0.20192872 -0.95785068
v 0.78566341 -0.20192872 -0.95785068
v 0.78566341 3.7407473e-2 0.95768908
v -1.12987635 3.7407473e-2 0.95768908
v -1.12987635 3.7407473e-2 -0.95785068
v 0.78566341 3.7407473e-2 -0.95785068
v -0.79274136 0.21594303 0.62055408
v -0.79274136 0.21594303 -0.62071568
v 0.55693407 -0.16341485 0.99991920
v 0.55693407 -0.16341485 -1.00008080
v 0.55693407 -0.20192872 0.95768908
v 0.55693407 -0.20192872 -0.95785068
v 0.55693407 3.7407473e-2 0.95768908
v 0.52045999 3.7407473e-2 -0.95785068
v 0.38269934 0.94075711 0.95768908
v 0.33809495 0.90300124 0.95768908
v 0.33809495 0.86448737 -1.00008080
v 0.38269934 0.90224324 -1.00008080
v 0.33809495 0.86448737 0.99991920
v 0.38269934 0.90224324 0.99991920
v 0.38269934 0.94075711 -0.95785068
v 0.33809495 0.90300124 -0.95785068
v 0.25098297 0.28535138 0.99991920
v 0.13521697 0.21190942 0.99991920
v 0.13521697 0.25042328 0.95768908
v 0.22198054 0.32386525 0.95768908
v 0.22198054 0.32386525 -0.95785068
v 0.13521697 0.25042328 -0.95785068
v 0.25098297 0.28535138 -1.00008080
v 0.13521697 0.21190942 -1.00008080
v 0.13521697 0.21594303 0.62055408
v 0.13521697 0.21594303 -0.62071568
v 0.22140109 0.28947969 -0.61696477
v 0.22140109 0.28947969 0.61680317
v 0.28962445 0.19764941 0.95768908
v 0.26070326 0.17316875 0.95768908
v 0.26070326 0.17316875 -0.95785068
v 0.28962445 0.19764941 -0.95785068
v 0.26051011 0.13872006 -0.61946538
v 0.28923814 0.16323228 -0.61821507
v 0.26051011 0.13872006 0.61930378
v 0.28923814 0.16323228 0.61805347
v 0.31403225 0.15913554 0.99991920
v 0.26070326 0.13465488 0.99991920
v 0.31403225 0.15913554 -1.00008080
v 0.26070326 0.13465488 -1.00008080
v 0.78479991 0.36941420 0.99991920
v 0.78479991 0.36941420 -1.00008080
v 0.82703003 0.36941420 0.95768908
v 0.82703003 0.36941420 -0.95785068
v 0.72742700 -8.7937115e-2 0.94004442
v 0.76623958 -8.7937115e-2 0.94004442
v 0.72742700 -8.7937115e-2 0.90123184
v 0.76623958 -8.7937115e-2 0.90123184
v 0.72742700 -8.7937115e-2 -0.93980201
v 0.76623958 -8.7937115e-2 -0.93980201
v 0.72742700 -8.7937115e-2 -0.90098944
v 0.76623958 -8.7937115e-2 -0.90098944
v 0.72742700 -0.57056096 0.90639005
v 0.72742700 -0.53690660 0.94004442
v 0.76623958 -0.57056096 0.90639005
v 0.76623958 -0.53690660 0.94004442
v 0.72742700 -0.53005236 0.86219561
v 0.72742700 -0.49101613 0.90123184
v 0.76623958 -0.53005236 0.86219561
v 0.76623958 -0.49101613 0.90123184
v 0.72742700 -0.57056096 -0.90614765
v 0.72742700 -0.53690660 -0.93980201
v 0.76623958 -0.57056096 -0.90614765
v 0.76623958 -0.53690660 -0.93980201
v 0.72742700 -0.53005236 -0.86195320
v 0.72742700 -0.49101613 -0.90098944
v 0.76623958 -0.53005236 -0.86195320
v 0.76623958 -0.49101613 -0.90098944
vt -5.8980598e-17 0.98209728
vt 0.0000000e+0 1.0785261e-2
vt 0.0000000e+0 0.50000000
vt 0.0000000e+0 1.00000000
vt 5.5511151e-17 0.51078526
vt 2.9490299e-16 1.00000000
vt 4.1286419e-16 0.95858768
vt 7.6848250e-16 0.97935333
vt 4.5467102e-15 0.97935333
vt 4.5467102e-15 1.00000000
vt 4.9023285e-15 1.7902720e-2
vt 5.1382509e-15 4.1412323e-2
vt 5.2562121e-15 0.0000000e+0
vt 5.7280569e-15 2.0646672e-2
vt 9.5080194e-15 5.9952043e-15
vt 9.5080194e-15 2.0646672e-2
vt 1.0785261e-2 5.5511151e-17
vt 1.0785261e-2 1.0785261e-2
vt 1.0785261e-2 0.50000000
vt 1.0785261e-2 0.51078526
vt 2.0646672e-2 0.98209728
vt 2.0646672e-2 1.00000000
vt 2.0646672e-2 0.95858768
vt 2.0646672e-2 0.97935333
vt 2.0646672e-2 0.97935333
vt 2.0646672e-2 1.00000000
vt 2.0646672e-2 1.7902720e-2
vt 2.0646672e-2 4.1412323e-2
vt 2.0646672e-2 1.1102230e-16
vt 2.0646672e-2 2.0646672e-2
vt 2.0646672e-2 6.1062266e-15
vt 2.0646672e-2 2.0646672e-2
vt 2.0646672e-2 1.7902720e-2
vt 2.0646672e-2 9.9920072e-16
vt 2.0646672e-2 4.1412323e-2
vt 2.0646672e-2 0.98209728
vt 2.0646672e-2 2.0646672e-2
vt 2.0646672e-2 1.00000000
vt 2.0646672e-2 0.95858768
vt 2.0646672e-2 0.97935333
vt 2.0646672e-2 0.0000000e+0
vt 2.0646672e-2 2.0646672e-2
vt 2.0646672e-2 0.97935333
vt 2.0646672e-2 1.00000000
vt 4.1293344e-2 1.7902720e-2
vt 4.1293344e-2 9.9920072e-16
vt 4.1293344e-2 4.1412323e-2
vt 4.1293344e-2 0.98209728
vt 4.1293344e-2 2.0646672e-2
vt 4.1293344e-2 1.00000000
vt 4.1293344e-2 0.95858768
vt 4.1293344e-2 0.97935333
vt 4.1293344e-2 0.0000000e+0
vt 4.1293344e-2 2.0646672e-2
vt 4.1293344e-2 0.97935333
vt 4.1293344e-2 1.00000000
vt 4.1293344e-2 0.0000000e+0
vt 4.1293344e-2 2.0646672e-2
vt 4.1293344e-2 2.0646672e-2
vt 4.1293344e-2 4.1293344e-2
vt 4.1293344e-2 4.1293344e-2
vt 4.1293344e-2 6.1940017e-2
vt 4.1293344e-2 6.1940017e-2
vt 4.1293344e-2 8.2586689e-2
vt 5.8415787e-2 1.00000000
vt 5.8415787e-2 0.51078526
vt 6.1940017e-2 4.1293344e-2
vt 6.1940017e-2 6.1940017e-2
vt 6.1940017e-2 6.1940017e-2
vt 6.1940017e-2 8.2586689e-2
vt 6.1940017e-2 0.0000000e+0
vt 6.1940017e-2 2.0646672e-2
vt 6.1940017e-2 2.0646672e-2
vt 6.1940017e-2 4.1293344e-2
vt 6.7730998e-2 1.00000000
vt 9.6887055e-2 9.6887055e-2
vt 9.6887055e-2 0.41389821
vt 0.33388077 5.5511151e-17
vt 0.33388077 1.0785261e-2
vt 0.33388077 9.6887055e-2
vt 0.33388077 0.41389821
vt 0.33388077 0.50000000
vt 0.33388077 0.51078526
vt 0.35589156 9.7845011e-2
vt 0.35589156 0.41294025
vt 0.35603955 1.0785261e-2
vt 0.35603955 0.50000000
vt 0.36344656 5.5511151e-17
vt 0.36344656 0.51078526
vt 0.36587972 9.7206374e-2
vt 0.36587972 0.41357889
vt 0.36592905 0.0000000e+0
vt 0.36592905 1.0785261e-2
vt 0.36592905 0.50000000
vt 0.36592905 0.51078526
vt 0.37321665 9.7525693e-2
vt 0.37321665 0.41325957
vt 0.37331531 1.0785261e-2
vt 0.37331531 0.50000000
vt 0.37954888 5.5511151e-17
vt 0.37954888 0.51078526
vt 0.38569431 5.5511151e-17
vt 0.38569431 1.0785261e-2
vt 0.38569431 0.50000000
vt 0.38569431 0.51078526
vt 0.39708595 5.5511151e-17
vt 0.39708595 1.0785261e-2
vt 0.39708595 0.50000000
vt 0.39708595 0.51078526
vt 0.44158421 5.5511151e-17
vt 0.44158421 1.0785261e-2
vt 0.44158421 0.50000000
vt 0.44158421 0.51078526
vt 0.48921474 1.00000000
vt 0.48921474 0.51078526
vt 0.49955894 5.5511151e-17
vt 0.49955894 0.51078526
vt 0.49955894 1.0785261e-2
vt 0.49955894 0.50000000
vt 0.49977947 0.0000000e+0
vt 0.49977947 0.51078526
vt 0.50000000 0.0000000e+0
vt 0.50000000 1.0785261e-2
vt 0.50000000 0.50000000
vt 0.50000000 0.51078526
vt 0.51034420 1.0785261e-2
vt 0.51034420 0.50000000
vt 0.51056473 1.0785261e-2
vt 0.51056473 0.50000000
vt 0.51078526 0.0000000e+0
vt 0.51078526 1.0785261e-2
vt 0.51078526 0.48921474
vt 0.51078526 0.50000000
vt 0.56920105 0.0000000e+0
vt 0.57851626 0.48921474
vt 1.00000000 0.48921474
vt 1.00000000 5.5511151e-17
vn -0.73450956 -0.62694312 0.25968834
vn -0.73450956 -0.25968834 0.62694312
vn 0.73450956 -0.62694312 0.25968834
vn 0.73450956 -0.25968834 0.62694312
vn -0.73450956 0.62694312 -0.25968834
vn -0.73450956 0.25968834 -0.62694312
vn 0.73450956 0.62694312 -0.25968834
vn 0.73450956 0.25968834 -0.62694312
vn -0.73450956 -0.62694312 -0.25968834
vn -0.73450956 -0.25968834 -0.62694312
vn 0.73450956 -0.62694312 -0.25968834
vn 0.73450956 -0.25968834 -0.62694312
vn -0.73450956 0.62694312 0.25968834
vn -0.73450956 0.25968834 0.62694312
vn 0.73450956 0.62694312 0.25968834
vn 0.73450956 0.25968834 0.62694312
vn -0.36435430 0.38901544 0.84611638
vn -0.29079639 -0.31047881 0.90500849
vn 0.36440096 -0.38873554 0.84622492
vn 0.36430746 0.38929535 0.84600780
vn -0.84611638 -0.38901544 0.36435430
vn -0.84611638 0.38901544 0.36435430
vn -0.84611638 0.38901544 -0.36435430
vn -0.84611638 -0.38901544 -0.36435430
vn -0.25806174 0.93102539 0.25806174
vn 0.34740245 0.87098971 0.34740245
vn 0.34740245 0.87098971 -0.34740245
vn -0.25806174 0.93102539 -0.25806174
vn -0.29079639 -0.31047881 -0.90500849
vn -0.36435430 0.38901544 -0.84611638
vn 0.36430746 0.38929535 -0.84600780
vn 0.36440096 -0.38873554 -0.84622492
vn 0.84585405 0.38969106 0.36424141
vn 0.84637822 -0.38833956 0.36446713
vn 0.84637822 -0.38833956 -0.36446713
vn 0.84585405 0.38969106 -0.36424141
vn 3.3992921e-2 0.99884381 -3.3992921e-2
vn 3.3992921e-2 0.99884381 3.3992921e-2
vn -9.1392748e-16 -0.32180930 0.94680451
vn 9.1392748e-16 -0.32180930 -0.94680451
vn -0.32979959 0.87713414 0.34909588
vn -0.83439291 0.47554011 0.27865763
vn -0.54706043 0.30254367 -0.78050766
vn -0.19780768 0.50931638 -0.83753743
vn -0.54706043 0.30254367 0.78050766
vn -0.19780768 0.50931638 0.83753743
vn -0.32979959 0.87713414 -0.34909588
vn -0.83439291 0.47554011 -0.27865763
vn -0.56055840 -9.5575479e-2 0.82258106
vn 0.11497339 0.39192104 0.91278641
vn 0.26295687 0.91412112 0.30860373
vn -0.97285780 -0.15676468 0.17021320
vn -0.97285780 -0.15676468 -0.17021320
vn 0.26295687 0.91412112 -0.30860373
vn -0.56055840 -9.5575479e-2 -0.82258106
vn 0.11497339 0.39192104 -0.91278641
vn 0.27229584 0.96096409 -4.9020375e-2
vn 0.27229584 0.96096409 4.9020375e-2
vn -0.96383280 -0.26595144 -1.7209465e-2
vn -0.96383280 -0.26595144 1.7209465e-2
vn -0.94951673 0.15724115 0.27146492
vn -2.7125626e-2 0.93160094 0.36246916
vn -2.7125626e-2 0.93160094 -0.36246916
vn -0.94951673 0.15724115 -0.27146492
vn -7.6972140e-2 0.99575380 5.0494094e-2
vn -0.98277038 0.18461829 8.8583579e-3
vn -7.6972140e-2 0.99575380 -5.0494094e-2
vn -0.98277038 0.18461829 -8.8583579e-3
vn -0.40524348 5.6116123e-2 0.91248491
vn 1.1225223e-2 0.36730814 0.93003157
vn -0.40524348 5.6116123e-2 -0.91248491
vn 1.1225223e-2 0.36730814 -0.93003157
vn 0.38268323 6.2017179e-4 0.92387941
vn 0.38268323 6.2017179e-4 -0.92387941
vn 0.92387844 1.4972262e-3 0.38268313
vn 0.92387844 1.4972262e-3 -0.38268313
vn -0.73450956 -0.62694312 0.25968834
vn -0.73450956 -0.25968834 0.62694312
vn 0.73450956 -0.62694312 0.25968834
vn 0.73450956 -0.25968834 0.62694312
vn -0.73450956 0.62694312 -0.25968834
vn -0.73450956 0.25968834 -0.62694312
vn 0.73450956 0.62694312 -0.25968834
vn 0.73450956 0.25968834 -0.62694312
vn -0.73450956 -0.62694312 -0.25968834
vn -0.73450956 -0.25968834 -0.62694312
vn 0.73450956 -0.62694312 -0.25968834
vn 0.73450956 -0.25968834 -0.62694312
vn -0.73450956 0.62694312 0.25968834
vn -0.73450956 0.25968834 0.62694312
vn 0.73450956 0.62694312 0.25968834
vn 0.73450956 0.25968834 0.62694312
vn -0.70710678 0.0000000e+0 0.70710678
vn 0.0000000e+0 1.00000000 0.0000000e+0
vn -0.70710678 0.0000000e+0 0.70710678
vn 0.70710678 0.0000000e+0 0.70710678
vn 0.0000000e+0 1.00000000 0.0000000e+0
vn 0.70710678 0.0000000e+0 0.70710678
vn 0.0000000e+0 1.00000000 0.0000000e+0
vn -0.70710678 0.0000000e+0 -0.70710678
vn -0.70710678 0.0000000e+0 -0.70710678
vn 0.0000000e+0 1.00000000 0.0000000e+0
vn 0.70710678 0.0000000e+0 -0.70710678
vn 0.70710678 0.0000000e+0 -0.70710678
vn -0.70710678 0.0000000e+0 -0.70710678
vn 0.0000000e+0 1.00000000 0.0000000e+0
vn -0.70710678 0.0000000e+0 -0.70710678
vn 0.70710678 0.0000000e+0 -0.70710678
vn 0.0000000e+0 1.00000000 0.0000000e+0
vn 0.70710678 0.0000000e+0 -0.70710678
vn 0.0000000e+0 1.00000000 0.0000000e+0
vn -0.70710678 0.0000000e+0 0.70710678
vn -0.70710678 0.0000000e+0 0.70710678
vn 0.0000000e+0 1.00000000 0.0000000e+0
vn 0.70710678 0.0000000e+0 0.70710678
vn 0.70710678 0.0000000e+0 0.70710678
vn 0.45286097 -0.76800644 0.45286097
vn 0.45286097 -0.76800644 0.45286097
vn -0.70710678 0.0000000e+0 -0.70710678
vn 0.45286097 -0.76800644 0.45286097
vn -0.70710678 0.0000000e+0 -0.70710678
vn -0.45286097 -0.76800644 0.45286097
vn -0.45286097 -0.76800644 0.45286097
vn -0.45286097 -0.76800644 0.45286097
vn 0.70710678 0.0000000e+0 -0.70710678
vn 0.70710678 0.0000000e+0 -0.70710678
vn -0.45286097 -0.76800644 -0.45286097
vn -0.45286097 -0.76800644 -0.45286097
vn 0.70710678 0.0000000e+0 0.70710678
vn -0.45286097 -0.76800644 -0.45286097
vn 0.70710678 0.0000000e+0 0.70710678
vn 0.45286097 -0.76800644 -0.45286097
vn 0.45286097 -0.76800644 -0.45286097
vn 0.45286097 -0.76800644 -0.45286097
vn -0.70710678 -1.6601948e-16 0.70710678
vn -0.70710678 -1.6601948e-16 0.70710678
vn -0.70710678 0.0000000e+0 -0.70710678
vn 0.0000000e+0 -1.00000000 0.0000000e+0
vn -0.70710678 0.0000000e+0 -0.70710678
vn 0.0000000e+0 -1.00000000 0.0000000e+0
vn 0.70710678 0.0000000e+0 -0.70710678
vn 0.70710678 0.0000000e+0 -0.70710678
vn 0.0000000e+0 -1.00000000 0.0000000e+0
vn 0.70710678 0.0000000e+0 0.70710678
vn 0.70710678 0.0000000e+0 0.70710678
vn -0.70710678 -1.6601948e-16 0.70710678
vn -0.70710678 -1.6601948e-16 0.70710678
vn 0.0000000e+0 -1.00000000 0.0000000e+0
vn 0.0000000e+0 -0.73886928 0.67384878
vn 0.0000000e+0 0.0000000e+0 -1.00000000
vn 0.0000000e+0 -0.73886928 0.67384878
vn 0.0000000e+0 0.0000000e+0 -1.00000000
vn 0.0000000e+0 -0.73886928 -0.67384878
vn 0.0000000e+0 -1.1739350e-16 1.00000000
vn 0.0000000e+0 -0.73886928 -0.67384878
vn 0.0000000e+0 -1.1739350e-16 1.00000000
vn 0.0000000e+0 -1.00000000 0.0000000e+0
vn 0.0000000e+0 0.0000000e+0 -1.00000000
vn 0.0000000e+0 -1.00000000 0.0000000e+0
vn 0.0000000e+0 0.0000000e+0 -1.00000000
vn 0.0000000e+0 -1.00000000 0.0000000e+0
vn 0.0000000e+0 -1.1739350e-16 1.00000000
vn 0.0000000e+0 -1.00000000 0.0000000e+0
vn 0.0000000e+0 -1.1739350e-16 1.00000000
vn -0.70710678 0.0000000e+0 0.70710678
vn 0.0000000e+0 1.00000000 0.0000000e+0
vn -0.70710678 0.0000000e+0 0.70710678
vn 0.70710678 0.0000000e+0 0.70710678
vn 0.0000000e+0 1.00000000 0.0000000e+0
vn 0.70710678 0.0000000e+0 0.70710678
vn 0.0000000e+0 1.00000000 0.0000000e+0
vn -0.70710678 0.0000000e+0 -0.70710678
vn -0.70710678 0.0000000e+0 -0.70710678
vn 0.0000000e+0 1.00000000 0.0000000e+0
vn 0.70710678 0.0000000e+0 -0.70710678
vn 0.70710678 0.0000000e+0 -0.70710678
vn -0.70710678 0.0000000e+0 -0.70710678
vn 0.0000000e+0 1.00000000 0.0000000e+0
vn -0.70710678 0.0000000e+0 -0.70710678
vn 0.70710678 0.0000000e+0 -0.70710678
vn 0.0000000e+0 1.00000000 0.0000000e+0
vn 0.70710678 0.0000000e+0 -0.70710678
vn 0.0000000e+0 1.00000000 0.0000000e+0
vn -0.70710678 0.0000000e+0 0.70710678
vn -0.70710678 0.0000000e+0 0.70710678
vn 0.0000000e+0 1.00000000 0.0000000e+0
vn 0.70710678 0.0000000e+0 0.70710678
vn 0.70710678 0.0000000e+0 0.70710678
g cube1_sep9_dark
usemtl dark
f 25/17/17 30/2/22 29/2/21 26/17/18
f 26/17/18 70/78/50 25/17/17
f 27/122/19 93/120/73 69/88/49 89/100/69 55/110/39
f 28/116/20 66/106/46 65/102/45 69/88/49 93/120/73
f 29/2/21 46/18/122 26/17/18
f 30/2/22 31/3/23 32/3/24 29/2/21
f 30/2/22 33/18/25 36/19/28 31/3/23
f 31/3/23 38/20/30 37/20/29 32/3/24
f 32/3/24 47/19/128 46/18/124 29/2/21
f 33/18/25 30/2/22 25/17/17
f 33/18/25 53/76/37 54/77/38 36/19/28
f 33/18/25 71/79/51 77/80/57 53/76/37
f 34/118/26 35/119/27 67/108/47 61/107/41
f 34/118/26 41/126/33 44/127/36 35/119/27
f 36/19/28 38/20/30 31/3/23
f 36/19/28 54/77/38 78/81/58 74/82/54
f 37/20/29 47/19/127 32/3/24
f 37/20/29 76/83/56 92/95/72 56/113/40
f 38/20/30 76/83/56 37/20/29
f 39/117/31 94/121/74 75/89/55 63/105/43 64/109/44
f 40/125/32 56/113/40 91/101/71 75/89/55 94/121/74
f 41/126/33 34/118/26 28/116/20
f 42/131/34 43/133/35 96/129/76 95/128/75
f 42/131/34 45/123/118 48/124/132 43/133/35
f 43/133/35 48/124/133 40/125/32
f 44/127/36 39/117/31 35/119/27
f 44/127/36 41/126/33 95/128/75 96/129/76
f 45/123/117 42/131/34 27/122/19
f 45/5/119 49/5/137 52/4/147 48/4/136
f 45/5/121 57/66/152 59/66/160 49/5/139
f 46/115/125 50/115/141 59/66/158 57/66/150
f 47/114/129 51/114/144 50/115/142 46/115/126
f 47/114/131 58/65/156 60/75/164 51/114/145
f 48/4/135 52/4/146 60/75/162 58/65/154
f 50/137/140 51/136/143 60/135/161 59/134/157
f 52/132/148 49/130/138 59/134/159 60/135/163
f 54/77/38 53/76/37 77/80/57 78/81/58
f 55/110/39 57/111/151 45/123/120 27/122/19
f 55/110/39 90/92/70 70/78/50 26/17/18
f 56/113/40 58/112/155 47/19/130 37/20/29
f 57/111/149 55/110/39 26/17/18 46/18/123
f 58/112/153 56/113/40 40/125/32 48/124/134
f 61/107/41 66/106/46 28/116/20 34/118/26
f 61/107/41 67/108/47 68/104/48 62/103/42
f 62/103/42 65/102/45 66/106/46 61/107/41
f 62/103/42 68/104/48 73/87/53 79/85/59 80/84/60 72/86/52
f 64/109/44 67/108/47 35/119/27 39/117/31
f 67/108/47 64/109/44 63/105/43 68/104/48
f 70/78/50 71/79/51 33/18/25 25/17/17
f 70/78/50 90/92/70 82/93/62 71/79/51
f 71/79/51 82/93/62 87/90/67 77/80/57
f 72/86/52 69/88/49 65/102/45 62/103/42
f 72/86/52 80/84/60 88/96/68 81/98/61
f 73/87/53 84/99/64 86/97/66 79/85/59
f 74/82/54 76/83/56 38/20/30 36/19/28
f 74/82/54 78/81/58 85/91/65 83/94/63
f 75/89/55 73/87/53 68/104/48 63/105/43
f 75/89/55 91/101/71 84/99/64 73/87/53
f 77/80/57 87/90/67 85/91/65 78/81/58
f 79/85/59 86/97/66 88/96/68 80/84/60
f 81/98/61 88/96/68 87/90/67 82/93/62
f 81/98/61 89/100/69 69/88/49 72/86/52
f 82/93/62 90/92/70 89/100/69 81/98/61
f 83/94/63 85/91/65 86/97/66 84/99/64
f 83/94/63 92/95/72 76/83/56 74/82/54
f 84/99/64 91/101/71 92/95/72 83/94/63
f 85/91/65 87/90/67 88/96/68 86/97/66
f 90/92/70 55/110/39 89/100/69
f 91/101/71 56/113/40 92/95/72
f 93/120/73 95/128/75 41/126/33 28/116/20
f 94/121/74 96/129/76 43/133/35 40/125/32
f 95/128/75 93/120/73 27/122/19 42/131/34
f 96/129/76 94/121/74 39/117/31 44/127/36
g cube1_sep9_metalgrey
usemtl metalgrey
f 1/31/93 10/29/2 12/13/4 2/15/96
f 2/69/97 4/70/102 3/64/99 1/63/94
f 3/32/101 14/30/6 10/29/2 1/31/95
f 4/16/103 16/14/8 14/30/6 3/32/100
f 5/26/105 6/10/108 20/6/12 18/22/10
f 5/62/106 7/61/111 8/67/114 6/68/109
f 7/25/112 22/24/14 24/8/16 8/9/115
f 8/9/116 24/8/16 20/6/12 6/10/110
f 9/27/1 11/11/3 12/13/4 10/29/2
f 9/27/1 13/28/5 21/23/13 17/21/9
f 10/29/2 14/30/6 13/28/5 9/27/1
f 11/11/3 15/12/7 16/14/8 12/13/4
f 12/13/4 16/14/8 4/16/104 2/15/98
f 13/28/5 15/12/7 23/7/15 21/23/13
f 14/30/6 16/14/8 15/12/7 13/28/5
f 17/21/9 19/1/11 11/11/3 9/27/1
f 17/21/9 21/23/13 22/24/14 18/22/10
f 18/22/10 22/24/14 7/25/113 5/26/107
f 19/1/11 17/21/9 18/22/10 20/6/12
f 19/1/11 23/7/15 15/12/7 11/11/3
f 20/6/12 24/8/16 23/7/15 19/1/11
f 24/8/16 22/24/14 21/23/13 23/7/15
f 97/53/165 106/46/78 108/34/80 98/41/168
f 98/73/169 100/74/174 99/60/171 97/59/166
f 99/54/173 110/49/82 106/46/78 97/53/167
f 100/42/175 112/37/84 110/49/82 99/54/172
f 101/56/177 102/44/180 116/38/88 114/50/86
f 101/58/178 103/57/183 104/71/186 102/72/181
f 103/55/184 118/52/90 120/40/92 104/43/187
f 104/43/188 120/40/92 116/38/88 102/44/182
f 105/45/77 107/33/79 108/34/80 106/46/78
f 105/45/77 109/47/81 117/51/89 113/48/85
f 106/46/78 110/49/82 109/47/81 105/45/77
f 107/33/79 111/35/83 112/37/84 108/34/80
f 108/34/80 112/37/84 100/42/176 98/41/170
f 109/47/81 111/35/83 119/39/91 117/51/89
f 110/49/82 112/37/84 111/35/83 109/47/81
f 113/48/85 115/36/87 107/33/79 105/45/77
f 113/48/85 117/51/89 118/52/90 114/50/86
f 114/50/86 118/52/90 103/55/185 101/56/179
f 115/36/87 113/48/85 114/50/86 116/38/88
f 115/36/87 119/39/91 111/35/83 107/33/79
f 116/38/88 120/40/92 119/39/91 115/36/87
f 120/40/92 118/52/90 117/51/89 119/39/91
