# Exported from Wings 3D 1.0.2
mtllib Poster.mtl
o cube1_sep89
#16 vertices, 13 faces
v -0.71597492 -1.07007321 1.8225054e-2
v -0.71597492 1.07007321 1.8225054e-2
v 0.71597492 1.07007321 1.8225054e-2
v 0.71597492 -1.07007321 1.8225054e-2
v -0.71597492 -1.07007321 -3.9906382e-2
v -0.71597492 1.07007321 -3.9906382e-2
v 0.71597492 1.07007321 -3.9906382e-2
v 0.71597492 -1.07007321 -3.9906382e-2
v -0.69735958 1.05145786 1.8225054e-2
v -0.69735958 -1.05145786 1.8225054e-2
v 0.69735958 -1.05145786 1.8225054e-2
v 0.69735958 1.05145786 1.8225054e-2
v -0.69735958 1.05145786 3.4562732e-3
v -0.69735958 -1.05145786 3.4562732e-3
v 0.69735958 -1.05145786 3.4562732e-3
v 0.69735958 1.05145786 3.4562732e-3
vt 0.0000000e+0 1.00000000
vt 1.1102230e-16 0.0000000e+0
vt 1.00000000 1.00000000
vt 1.00000000 0.0000000e+0
vn 0.0000000e+0 -1.00000000 0.0000000e+0
vn -1.00000000 0.0000000e+0 0.0000000e+0
vn 0.0000000e+0 0.0000000e+0 1.00000000
vn 0.0000000e+0 0.0000000e+0 1.00000000
vn 0.0000000e+0 1.00000000 0.0000000e+0
vn -1.00000000 0.0000000e+0 0.0000000e+0
vn 0.0000000e+0 0.0000000e+0 1.00000000
vn 0.0000000e+0 0.0000000e+0 1.00000000
vn 1.00000000 0.0000000e+0 0.0000000e+0
vn 0.0000000e+0 1.00000000 0.0000000e+0
vn 0.0000000e+0 0.0000000e+0 1.00000000
vn 0.0000000e+0 0.0000000e+0 1.00000000
vn 1.00000000 0.0000000e+0 0.0000000e+0
vn 0.0000000e+0 -1.00000000 0.0000000e+0
vn 0.0000000e+0 0.0000000e+0 1.00000000
vn 0.0000000e+0 0.0000000e+0 1.00000000
vn 0.0000000e+0 -1.00000000 0.0000000e+0
vn -1.00000000 0.0000000e+0 0.0000000e+0
vn 0.0000000e+0 1.00000000 0.0000000e+0
vn -1.00000000 0.0000000e+0 0.0000000e+0
vn 1.00000000 0.0000000e+0 0.0000000e+0
vn 0.0000000e+0 1.00000000 0.0000000e+0
vn 1.00000000 0.0000000e+0 0.0000000e+0
vn 0.0000000e+0 -1.00000000 0.0000000e+0
vn 0.0000000e+0 0.0000000e+0 1.00000000
vn 0.0000000e+0 0.0000000e+0 1.00000000
vn 1.00000000 0.0000000e+0 0.0000000e+0
vn 0.0000000e+0 -1.00000000 0.0000000e+0
vn 0.0000000e+0 0.0000000e+0 1.00000000
vn 0.0000000e+0 0.0000000e+0 1.00000000
vn 1.00000000 0.0000000e+0 0.0000000e+0
vn 0.0000000e+0 1.00000000 0.0000000e+0
vn 0.0000000e+0 0.0000000e+0 1.00000000
vn 0.0000000e+0 0.0000000e+0 1.00000000
vn 0.0000000e+0 1.00000000 0.0000000e+0
vn -1.00000000 0.0000000e+0 0.0000000e+0
vn 0.0000000e+0 0.0000000e+0 1.00000000
vn 0.0000000e+0 0.0000000e+0 1.00000000
vn -1.00000000 0.0000000e+0 0.0000000e+0
vn 0.0000000e+0 -1.00000000 0.0000000e+0
vn 0.0000000e+0 0.0000000e+0 1.00000000
vn 1.00000000 0.0000000e+0 0.0000000e+0
vn 0.0000000e+0 -1.00000000 0.0000000e+0
vn 0.0000000e+0 0.0000000e+0 1.00000000
vn 1.00000000 0.0000000e+0 0.0000000e+0
vn 0.0000000e+0 1.00000000 0.0000000e+0
vn 0.0000000e+0 0.0000000e+0 1.00000000
vn 0.0000000e+0 1.00000000 0.0000000e+0
vn -1.00000000 0.0000000e+0 0.0000000e+0
vn 0.0000000e+0 0.0000000e+0 1.00000000
vn -1.00000000 0.0000000e+0 0.0000000e+0
vn 0.0000000e+0 -1.00000000 0.0000000e+0
g cube1_sep89_plakat
usemtl plakat
f 14/2/44 15/4/47 16/3/50 13/1/41
g cube1_sep89_sivo
usemtl sivo
f 1//1 5//17 8//24 4//14
f 1//3 10//29 9//25 2//7
f 2//6 6//20 5//18 1//2
f 2//8 9//26 12//38 3//12
f 3//10 7//22 6//19 2//5
f 3//11 12//37 11//34 4//16
f 4//13 8//23 7//21 3//9
f 4//15 11//33 10//30 1//4
f 9//28 13//43 16//52 12//40
f 10//31 14//45 13//42 9//27
f 11//35 15//48 14//46 10//32
f 12//39 16//51 15//49 11//36
