# Exported from Wings 3D 1.0.2
mtllib Switch.mtl
o cube1
#20 vertices, 12 faces
v -0.11200000 -0.50000000 0.50000000
v -0.11200000 0.50000000 0.50000000
v 0.11200000 0.50000000 0.50000000
v 0.11200000 -0.50000000 0.50000000
v -0.11200000 -0.50000000 -0.50000000
v -0.11200000 0.50000000 -0.50000000
v 0.11200000 0.50000000 -0.50000000
v 0.11200000 -0.50000000 -0.50000000
v 0.16231673 0.16666667 0.50000000
v 0.16231673 -0.16666667 0.50000000
v 0.16231673 0.16666667 -0.50000000
v 0.16231673 -0.16666667 -0.50000000
v 0.12564773 -0.29151933 0.13728000
v 4.7622809e-2 0.27513410 0.13728000
v 0.16662003 0.29151933 0.13728000
v 0.24464495 -0.27513410 0.13728000
v 0.12564773 -0.29151933 -0.13728000
v 4.7622809e-2 0.27513410 -0.13728000
v 0.16662003 0.29151933 -0.13728000
v 0.24464495 -0.27513410 -0.13728000
vt 0.0000000e+0 0.0000000e+0
vt 0.0000000e+0 0.33578669
vt 0.0000000e+0 0.71844298
vt 5.5511151e-17 0.16883900
vt 5.5511151e-17 0.50462569
vt 9.8925475e-2 0.0000000e+0
vt 0.15087303 0.73921733
vt 0.24979850 2.0774350e-2
vt 0.24979850 2.0774350e-2
vt 0.34872398 0.73921733
vt 0.40067153 0.0000000e+0
vt 0.49959700 0.0000000e+0
vt 0.49959700 0.72522174
vt 0.49959700 0.71844298
vt 0.50084305 0.33578669
vt 0.50084305 0.50462569
vt 0.50084305 1.1102230e-16
vt 0.50084305 0.16694768
vt 0.50084305 0.16883900
vt 0.50084305 0.33389537
vt 0.52604384 0.0000000e+0
vt 0.52604384 0.50084305
vt 0.63823268 0.0000000e+0
vt 0.63823268 0.0000000e+0
vt 0.63823268 0.50084305
vt 0.63823268 0.50084305
vt 0.75042153 0.0000000e+0
vt 0.75042153 1.1102230e-16
vt 0.75042153 0.50084305
vt 0.75042153 0.50084305
vt 0.84770344 0.0000000e+0
vt 0.84770344 2.2204460e-16
vt 0.84770344 0.72522174
vt 0.84770344 0.69621287
vt 0.84770344 0.34810643
vt 0.84770344 0.34810643
vt 0.86261037 0.0000000e+0
vt 0.86261037 0.50084305
vt 0.88781116 0.16694768
vt 0.88781116 0.33389537
vt 0.88781116 0.50084305
vt 0.88781116 0.0000000e+0
vt 1.00000000 0.0000000e+0
vt 1.00000000 0.34810643
vt 1.00000000 0.69621287
vt 1.00000000 0.0000000e+0
vt 1.00000000 0.34810643
vt 1.00000000 0.50084305
vn 0.0000000e+0 0.0000000e+0 1.00000000
vn 0.0000000e+0 -1.00000000 0.0000000e+0
vn 0.0000000e+0 0.0000000e+0 1.00000000
vn 0.0000000e+0 1.00000000 0.0000000e+0
vn 0.0000000e+0 0.0000000e+0 1.00000000
vn 0.98879809 0.14925927 0.0000000e+0
vn 0.0000000e+0 1.00000000 0.0000000e+0
vn 0.0000000e+0 0.0000000e+0 1.00000000
vn 0.0000000e+0 -1.00000000 0.0000000e+0
vn 0.98879809 -0.14925927 0.0000000e+0
vn 0.0000000e+0 -1.00000000 0.0000000e+0
vn 0.0000000e+0 0.0000000e+0 -1.00000000
vn 0.0000000e+0 1.00000000 0.0000000e+0
vn 0.0000000e+0 0.0000000e+0 -1.00000000
vn 0.98879809 0.14925927 0.0000000e+0
vn 0.0000000e+0 1.00000000 0.0000000e+0
vn 0.0000000e+0 0.0000000e+0 -1.00000000
vn 0.0000000e+0 -1.00000000 0.0000000e+0
vn 0.0000000e+0 0.0000000e+0 -1.00000000
vn 0.98879809 -0.14925927 0.0000000e+0
vn 0.0000000e+0 0.0000000e+0 1.00000000
vn 0.99719559 7.4839518e-2 0.0000000e+0
vn 0.99719559 7.4839518e-2 0.0000000e+0
vn 0.0000000e+0 0.0000000e+0 1.00000000
vn 0.99719559 -7.4839518e-2 0.0000000e+0
vn 0.99719559 -7.4839518e-2 0.0000000e+0
vn 0.99719559 7.4839518e-2 0.0000000e+0
vn 0.0000000e+0 0.0000000e+0 -1.00000000
vn 0.99719559 7.4839518e-2 0.0000000e+0
vn 0.0000000e+0 0.0000000e+0 -1.00000000
vn 0.99719559 -7.4839518e-2 0.0000000e+0
vn 0.99719559 -7.4839518e-2 0.0000000e+0
vn 0.0000000e+0 0.0000000e+0 1.00000000
vn 0.13640721 -0.99065285 0.0000000e+0
vn 0.0000000e+0 0.0000000e+0 1.00000000
vn -0.13640721 0.99065285 0.0000000e+0
vn 0.0000000e+0 0.0000000e+0 1.00000000
vn 0.99065285 0.13640721 0.0000000e+0
vn -0.13640721 0.99065285 0.0000000e+0
vn 0.0000000e+0 0.0000000e+0 1.00000000
vn 0.99065285 0.13640721 0.0000000e+0
vn 0.13640721 -0.99065285 0.0000000e+0
vn 0.13640721 -0.99065285 0.0000000e+0
vn 0.0000000e+0 6.3118826e-18 -1.00000000
vn -0.13640721 0.99065285 0.0000000e+0
vn 0.0000000e+0 6.3118826e-18 -1.00000000
vn 0.99065285 0.13640721 0.0000000e+0
vn -0.13640721 0.99065285 0.0000000e+0
vn 0.0000000e+0 6.3118826e-18 -1.00000000
vn 0.99065285 0.13640721 0.0000000e+0
vn 0.13640721 -0.99065285 0.0000000e+0
vn 0.0000000e+0 6.3118826e-18 -1.00000000
g cube1_white
usemtl white
f 13/6/33 16/8/40 15/7/37 14/3/35
f 13/44/34 17/45/43 20/34/51 16/35/42
f 15/43/39 19/47/48 18/36/45 14/31/36
f 16/12/41 20/32/50 19/33/47 15/13/38
f 18/14/46 19/10/49 20/9/52 17/11/44
g cube1_yellowish
usemtl yellowish
f 1/28/1 4/37/8 10/39/24 9/40/21 3/38/5 2/30/3
f 1/27/2 5/29/11 8/26/18 4/23/9
f 3/46/7 7/48/16 6/41/13 2/42/4
f 6/25/14 7/22/17 11/20/28 12/18/30 8/21/19 5/24/12
f 8/17/20 12/19/32 10/4/26 4/1/10
f 9/2/22 11/15/27 7/16/15 3/5/6
f 10/4/25 12/19/31 11/15/29 9/2/23
