# Exported from Wings 3D 1.0.2
mtllib Table.mtl
o cube45
#68 vertices, 62 faces
v 1.38183498 0.39483656 2.28457551
v 1.38183498 0.49379911 2.28457551
v 1.38183498 0.49379911 -2.28936029
v 1.38183498 0.39483656 -2.28936029
v -1.37744427 0.39483656 2.28457551
v -1.37744427 0.49379911 2.28457551
v -1.37744427 0.49379911 -2.28936029
v -1.37744427 0.39483656 -2.28936029
v -1.26761860 -1.18393788 2.26843129
v -1.26761860 0.36159920 2.26843129
v -1.26761860 0.36159920 2.16905577
v -1.26761860 -1.18393788 2.16905577
v -1.36699412 -1.18393788 2.26843129
v -1.36699412 0.36159920 2.26843129
v -1.36699412 0.36159920 2.16905577
v -1.36699412 -1.18393788 2.16905577
v -1.26761860 0.26867989 2.26843129
v -1.26761860 0.26867989 2.16905577
v -1.36699412 0.26867989 2.16905577
v 1.26703318 -1.18393788 2.26843129
v 1.26703318 0.36159920 2.26843129
v 1.26703318 0.36159920 2.16905577
v 1.26703318 -1.18393788 2.16905577
v 1.36640869 -1.18393788 2.26843129
v 1.36640869 0.36159920 2.26843129
v 1.36640869 0.36159920 2.16905577
v 1.36640869 -1.18393788 2.16905577
v 1.26703318 0.26867989 2.26843129
v 1.26703318 0.26867989 2.16905577
v 1.36640869 0.26867989 2.16905577
v -1.26761860 -1.18393788 -2.26779332
v -1.26761860 0.36159920 -2.26779332
v -1.26761860 0.36159920 -2.16841780
v -1.26761860 -1.18393788 -2.16841780
v -1.36699412 -1.18393788 -2.26779332
v -1.36699412 0.36159920 -2.26779332
v -1.36699412 0.36159920 -2.16841780
v -1.36699412 -1.18393788 -2.16841780
v -1.26761860 0.26867989 -2.26779332
v -1.26761860 0.26867989 -2.16841780
v -1.36699412 0.26867989 -2.16841780
v 1.26703318 -1.18393788 -2.26779332
v 1.26703318 0.36159920 -2.26779332
v 1.26703318 0.36159920 -2.16841780
v 1.26703318 -1.18393788 -2.16841780
v 1.36640869 -1.18393788 -2.26779332
v 1.36640869 0.36159920 -2.26779332
v 1.36640869 0.36159920 -2.16841780
v 1.36640869 -1.18393788 -2.16841780
v 1.26703318 0.26867989 -2.26779332
v 1.26703318 0.26867989 -2.16841780
v 1.36640869 0.26867989 -2.16841780
v -1.26761860 0.39866985 2.26843129
v -1.26761860 0.39866985 2.16905577
v -1.36699412 0.39866985 2.16905577
v -1.36699412 0.39866985 2.26843129
v 1.26703318 0.39866985 2.16905577
v 1.26703318 0.39866985 2.26843129
v 1.36640869 0.39866985 2.26843129
v 1.36640869 0.39866985 2.16905577
v -1.26761860 0.39866985 -2.16841780
v -1.26761860 0.39866985 -2.26779332
v -1.36699412 0.39866985 -2.26779332
v -1.36699412 0.39866985 -2.16841780
v 1.26703318 0.39866985 -2.26779332
v 1.26703318 0.39866985 -2.16841780
v 1.36640869 0.39866985 -2.16841780
v 1.36640869 0.39866985 -2.26779332
vt 0.0000000e+0 6.0715322e-17
vt 0.0000000e+0 1.3495110e-2
vt 0.0000000e+0 0.63722369
vt 0.0000000e+0 0.63722369
vt 0.0000000e+0 0.65071880
vt 0.0000000e+0 0.85076678
vt 0.0000000e+0 0.85076678
vt 0.0000000e+0 0.86899229
vt 0.0000000e+0 0.86899229
vt 0.0000000e+0 0.88721779
vt 0.0000000e+0 0.89409086
vt 0.0000000e+0 0.95048196
vt 5.5511151e-17 0.66421391
vt 4.4408921e-16 1.3495110e-2
vt 4.9248799e-15 1.6653345e-16
vt 1.4024177e-2 0.94360890
vt 1.4024177e-2 0.88721779
vt 1.8244810e-2 0.98829752
vt 1.8244810e-2 0.93190641
vt 1.9491851e-2 0.85076678
vt 1.9491851e-2 0.0000000e+0
vt 1.9491851e-2 0.0000000e+0
vt 1.9491851e-2 0.85076678
vt 3.2316599e-2 0.98118407
vt 3.2316599e-2 0.92479297
vt 3.3205637e-2 0.96649425
vt 3.3205637e-2 0.91010314
vt 3.8983702e-2 0.0000000e+0
vt 3.8983702e-2 0.85076678
vt 3.8983702e-2 0.85076678
vt 3.8983702e-2 0.0000000e+0
vt 5.8475552e-2 0.85076678
vt 5.8475552e-2 0.0000000e+0
vt 5.8475552e-2 0.85076678
vt 5.8475552e-2 0.0000000e+0
vt 7.7967403e-2 0.85076678
vt 7.7967403e-2 5.2019470e-2
vt 7.7967403e-2 0.0000000e+0
vt 7.7967403e-2 5.2725159e-3
vt 7.7967403e-2 0.13121127
vt 7.7967403e-2 0.15070312
vt 7.7967403e-2 0.18842047
vt 7.7967403e-2 0.18842047
vt 7.7967403e-2 0.11171941
vt 7.7967403e-2 0.11171941
vt 7.7967403e-2 0.13121127
vt 7.7967403e-2 0.17019497
vt 7.7967403e-2 0.15070312
vt 7.7967403e-2 0.17019497
vt 7.7967403e-2 0.20791233
vt 7.7967403e-2 9.3493907e-2
vt 9.1479501e-2 0.0000000e+0
vt 9.1479501e-2 4.6746954e-2
vt 9.1823830e-2 4.1840239e-2
vt 9.1823830e-2 8.8587193e-2
vt 0.10549806 3.6397488e-2
vt 0.10549806 8.3144441e-2
vt 0.10667615 1.7468335e-2
vt 0.10667615 6.4215289e-2
vt 0.36993894 9.3457070e-2
vt 0.36993894 4.6710117e-2
vt 0.37184061 7.5367263e-2
vt 0.37184061 2.8620309e-2
vt 0.37298861 0.94355526
vt 0.37298861 0.99994636
vt 0.37516274 0.97664223
vt 0.37516274 0.92025113
vt 0.37627142 0.65071880
vt 0.37627142 0.66421391
vt 0.37627142 0.63722369
vt 0.37627142 1.3495110e-2
vt 0.40030886 7.5606324e-2
vt 0.40030886 2.8859370e-2
vt 0.40220625 9.3493907e-2
vt 0.40220625 4.6746954e-2
vt 0.41216220 0.92053972
vt 0.41216220 0.97693082
vt 0.41432130 1.00000000
vt 0.41432130 0.94360890
vt 0.57512260 0.18842047
vt 0.57512260 0.20791233
vt 0.57512260 0.13121127
vt 0.57512260 0.15070312
vt 0.57512260 0.15070312
vt 0.57512260 0.17019497
vt 0.57512260 0.17019497
vt 0.57512260 0.18842047
vt 0.57512260 0.11171941
vt 0.57512260 0.13121127
vt 0.57512260 9.3493907e-2
vt 0.57512260 0.11171941
vt 0.62372858 0.63722369
vt 0.62372858 0.65071880
vt 0.62372858 0.63722369
vt 0.62372858 0.65071880
vt 0.62372858 1.3495110e-2
vt 0.62372858 0.0000000e+0
vt 0.62372858 0.0000000e+0
vt 0.62372858 0.62372858
vt 0.66247298 6.4409007e-2
vt 0.66247298 1.7662053e-2
vt 0.66346147 8.3366500e-2
vt 0.66346147 3.6619546e-2
vt 0.67712224 8.8587193e-2
vt 0.67712224 4.1840239e-2
vt 0.67754419 4.7172225e-2
vt 0.67754419 4.2527138e-4
vt 0.69112127 5.2372901e-2
vt 0.69112127 5.6259468e-3
vt 0.69112127 0.56984275
vt 0.69112127 0.58933460
vt 0.69112127 0.0000000e+0
vt 0.69112127 0.28492138
vt 0.69112127 0.28492138
vt 0.69112127 0.56984275
vt 0.71061312 0.28492138
vt 0.71061312 0.0000000e+0
vt 0.71061312 0.28492138
vt 0.71061312 0.56984275
vt 0.71061312 0.56984275
vt 0.71061312 0.56984275
vt 0.71061312 0.58933460
vt 0.73010497 0.28492138
vt 0.73010497 0.28492138
vt 0.73010497 0.56984275
vt 0.73010497 0.56984275
vt 0.73010497 0.56984275
vt 0.73010497 0.58933460
vt 0.73010497 0.56984275
vt 0.73010497 0.57711392
vt 0.74959682 0.28492138
vt 0.74959682 0.56984275
vt 0.74959682 0.56984275
vt 0.74959682 0.28492138
vt 0.74959682 0.56984275
vt 0.74959682 0.57711392
vt 0.74959682 0.56984275
vt 0.74959682 0.58933460
vt 0.75058136 0.91048979
vt 0.75058136 0.96688090
vt 0.75136864 0.92517955
vt 0.75136864 0.98157066
vt 0.76551702 0.93190641
vt 0.76551702 0.98829752
vt 0.76908867 0.56984275
vt 0.76908867 0.28492138
vt 0.76908867 0.56984275
vt 0.76908867 0.28492138
vt 0.76908867 0.56984275
vt 0.76908867 0.56984275
vt 0.76908867 0.58933460
vt 0.76965855 0.94429191
vt 0.76965855 0.88790081
vt 0.78365366 0.89467601
vt 0.78365366 0.95106712
vt 0.78858052 0.56984275
vt 0.78858052 0.28492138
vt 0.78858052 0.28492138
vt 0.78858052 0.56984275
vt 0.78858052 0.60882646
vt 0.78858052 0.61609762
vt 0.78858052 0.56984275
vt 0.78858052 0.58933460
vt 0.78858052 0.58933460
vt 0.78858052 0.60882646
vt 0.80807237 0.28492138
vt 0.80807237 0.28492138
vt 0.80807237 0.56984275
vt 0.80807237 0.56984275
vt 0.80807237 0.56984275
vt 0.80807237 0.58933460
vt 0.80807237 0.60882646
vt 0.80807237 0.60882646
vt 0.80807237 0.61609762
vt 0.82756422 0.28492138
vt 0.82756422 0.56984275
vt 0.82756422 0.60882646
vt 0.82756422 0.60882646
vt 0.82756422 0.61609762
vt 0.82756422 0.61609762
vt 0.82756422 0.62336878
vt 0.82756422 0.62336878
vt 0.82756422 0.64286063
vt 0.82756422 0.64286063
vt 0.82756422 0.66235248
vt 0.82756422 0.66235248
vt 0.82756422 0.66962365
vt 0.82756422 0.67689481
vt 0.82756422 0.67689481
vt 0.82756422 0.68416597
vt 0.84705607 0.67689481
vt 0.84705607 0.68416597
vt 0.84705607 0.60882646
vt 0.84705607 0.61609762
vt 0.84705607 0.62336878
vt 0.84705607 0.62336878
vt 0.84705607 0.64286063
vt 0.84705607 0.64286063
vt 0.84705607 0.66235248
vt 0.84705607 0.66235248
vt 0.84705607 0.66962365
vt 0.84705607 0.67689481
vt 0.85076678 0.86899229
vt 0.85076678 0.88721779
vt 0.85076678 0.85076678
vt 0.85076678 0.86899229
vt 1.00000000 0.63722369
vt 1.00000000 0.65071880
vt 1.00000000 1.1102230e-16
vt 1.00000000 0.62372858
vn 1.00000000 0.0000000e+0 2.1461366e-16
vn 7.9171162e-17 -1.00000000 -9.7091264e-17
vn 0.0000000e+0 0.0000000e+0 1.00000000
vn 1.00000000 0.0000000e+0 2.1461366e-16
vn -8.7967958e-17 1.00000000 9.7091264e-17
vn 0.0000000e+0 0.0000000e+0 1.00000000
vn 1.00000000 0.0000000e+0 2.1461366e-16
vn 0.0000000e+0 0.0000000e+0 -1.00000000
vn -8.7967958e-17 1.00000000 9.7091264e-17
vn 1.00000000 0.0000000e+0 2.1461366e-16
vn 0.0000000e+0 0.0000000e+0 -1.00000000
vn 7.9171162e-17 -1.00000000 -9.7091264e-17
vn 7.9171162e-17 -1.00000000 -9.7091264e-17
vn -1.00000000 0.0000000e+0 -1.2263638e-16
vn 0.0000000e+0 0.0000000e+0 1.00000000
vn -8.7967958e-17 1.00000000 9.7091264e-17
vn -1.00000000 0.0000000e+0 -1.2263638e-16
vn 0.0000000e+0 0.0000000e+0 1.00000000
vn 0.0000000e+0 0.0000000e+0 -1.00000000
vn -8.7967958e-17 1.00000000 9.7091264e-17
vn -1.00000000 0.0000000e+0 -1.2263638e-16
vn 0.0000000e+0 0.0000000e+0 -1.00000000
vn 7.9171162e-17 -1.00000000 -9.7091264e-17
vn -1.00000000 0.0000000e+0 -1.2263638e-16
vn 1.00000000 0.0000000e+0 0.0000000e+0
vn 0.0000000e+0 -1.00000000 0.0000000e+0
vn 0.0000000e+0 0.0000000e+0 1.00000000
vn -5.8402396e-17 0.0000000e+0 1.00000000
vn -9.6418549e-17 1.00000000 0.0000000e+0
vn -5.8402396e-17 0.0000000e+0 1.00000000
vn 1.00000000 0.0000000e+0 0.0000000e+0
vn -5.8402396e-17 0.0000000e+0 1.00000000
vn -9.6418549e-17 1.00000000 0.0000000e+0
vn 0.0000000e+0 0.0000000e+0 -1.00000000
vn 1.00000000 2.3896499e-15 5.1649808e-17
vn 0.0000000e+0 1.00000000 1.0238430e-16
vn 1.00000000 0.0000000e+0 0.0000000e+0
vn 0.0000000e+0 0.0000000e+0 -1.00000000
vn 1.00000000 0.0000000e+0 0.0000000e+0
vn 0.0000000e+0 0.0000000e+0 -1.00000000
vn 0.0000000e+0 -1.00000000 0.0000000e+0
vn 0.0000000e+0 -1.00000000 0.0000000e+0
vn -1.00000000 0.0000000e+0 0.0000000e+0
vn 0.0000000e+0 0.0000000e+0 1.00000000
vn -1.00000000 0.0000000e+0 0.0000000e+0
vn 0.0000000e+0 0.0000000e+0 1.00000000
vn -1.00000000 0.0000000e+0 0.0000000e+0
vn 0.0000000e+0 0.0000000e+0 1.00000000
vn -1.00000000 0.0000000e+0 0.0000000e+0
vn 0.0000000e+0 1.00000000 1.0238430e-16
vn -1.00000000 0.0000000e+0 0.0000000e+0
vn 0.0000000e+0 0.0000000e+0 -1.00000000
vn -1.00000000 0.0000000e+0 0.0000000e+0
vn 0.0000000e+0 0.0000000e+0 -1.00000000
vn 0.0000000e+0 -1.00000000 0.0000000e+0
vn -1.00000000 0.0000000e+0 0.0000000e+0
vn 1.00000000 0.0000000e+0 0.0000000e+0
vn -8.7603594e-17 0.0000000e+0 1.00000000
vn 8.9531510e-17 -1.00000000 0.0000000e+0
vn -8.7603594e-17 0.0000000e+0 1.00000000
vn 1.00000000 0.0000000e+0 0.0000000e+0
vn 0.0000000e+0 0.0000000e+0 -1.00000000
vn 0.0000000e+0 0.0000000e+0 -1.00000000
vn 8.9531510e-17 -1.00000000 0.0000000e+0
vn 1.00000000 2.3896499e-15 5.1649808e-17
vn 0.0000000e+0 -1.00000000 -1.0238430e-16
vn 0.0000000e+0 0.0000000e+0 -1.00000000
vn -1.00000000 0.0000000e+0 0.0000000e+0
vn -1.00000000 0.0000000e+0 0.0000000e+0
vn 0.0000000e+0 -1.00000000 -1.0238430e-16
vn -1.00000000 0.0000000e+0 0.0000000e+0
vn 0.0000000e+0 -1.00000000 0.0000000e+0
vn 0.0000000e+0 0.0000000e+0 1.00000000
vn -5.8402396e-17 0.0000000e+0 1.00000000
vn -9.6418549e-17 1.00000000 0.0000000e+0
vn -5.8402396e-17 0.0000000e+0 1.00000000
vn -1.00000000 0.0000000e+0 0.0000000e+0
vn -5.8402396e-17 0.0000000e+0 1.00000000
vn -9.6418549e-17 1.00000000 0.0000000e+0
vn 0.0000000e+0 0.0000000e+0 -1.00000000
vn -1.00000000 0.0000000e+0 -1.7216603e-17
vn 0.0000000e+0 1.00000000 1.0238430e-16
vn -1.00000000 0.0000000e+0 0.0000000e+0
vn 0.0000000e+0 0.0000000e+0 -1.00000000
vn -1.00000000 0.0000000e+0 0.0000000e+0
vn 0.0000000e+0 0.0000000e+0 -1.00000000
vn 0.0000000e+0 -1.00000000 0.0000000e+0
vn 0.0000000e+0 -1.00000000 0.0000000e+0
vn 1.00000000 0.0000000e+0 0.0000000e+0
vn 0.0000000e+0 0.0000000e+0 1.00000000
vn 1.00000000 0.0000000e+0 0.0000000e+0
vn 0.0000000e+0 0.0000000e+0 1.00000000
vn 0.0000000e+0 0.0000000e+0 1.00000000
vn 1.00000000 0.0000000e+0 0.0000000e+0
vn 1.00000000 0.0000000e+0 6.8866411e-17
vn 1.00000000 0.0000000e+0 6.8866411e-17
vn 0.0000000e+0 1.00000000 1.0238430e-16
vn 1.00000000 0.0000000e+0 6.8866411e-17
vn 0.0000000e+0 0.0000000e+0 -1.00000000
vn 0.0000000e+0 0.0000000e+0 -1.00000000
vn 0.0000000e+0 -1.00000000 0.0000000e+0
vn 1.00000000 0.0000000e+0 0.0000000e+0
vn -1.00000000 0.0000000e+0 0.0000000e+0
vn -8.7603594e-17 0.0000000e+0 1.00000000
vn 8.9531510e-17 -1.00000000 0.0000000e+0
vn -8.7603594e-17 0.0000000e+0 1.00000000
vn -1.00000000 0.0000000e+0 0.0000000e+0
vn 0.0000000e+0 0.0000000e+0 -1.00000000
vn 0.0000000e+0 0.0000000e+0 -1.00000000
vn 8.9531510e-17 -1.00000000 0.0000000e+0
vn -1.00000000 0.0000000e+0 -1.7216603e-17
vn 0.0000000e+0 -1.00000000 -1.0238430e-16
vn 0.0000000e+0 0.0000000e+0 -1.00000000
vn 1.00000000 0.0000000e+0 1.0329962e-16
vn 0.0000000e+0 -1.00000000 -1.0238430e-16
vn 1.00000000 0.0000000e+0 1.0329962e-16
vn 1.00000000 0.0000000e+0 0.0000000e+0
vn 0.0000000e+0 -1.00000000 0.0000000e+0
vn 0.0000000e+0 0.0000000e+0 -1.00000000
vn 0.0000000e+0 0.0000000e+0 -1.00000000
vn -8.2644470e-17 1.00000000 -1.9574143e-31
vn 0.0000000e+0 0.0000000e+0 -1.00000000
vn 1.00000000 0.0000000e+0 5.6506950e-15
vn 0.0000000e+0 0.0000000e+0 -1.00000000
vn -8.2644470e-17 1.00000000 -1.9574143e-31
vn 0.0000000e+0 0.0000000e+0 1.00000000
vn 1.00000000 2.3896499e-15 5.1649808e-17
vn 0.0000000e+0 1.00000000 1.0238430e-16
vn 1.00000000 0.0000000e+0 5.6506950e-15
vn 0.0000000e+0 0.0000000e+0 1.00000000
vn 1.00000000 0.0000000e+0 0.0000000e+0
vn 0.0000000e+0 0.0000000e+0 1.00000000
vn 0.0000000e+0 -1.00000000 0.0000000e+0
vn 0.0000000e+0 -1.00000000 0.0000000e+0
vn -1.00000000 0.0000000e+0 0.0000000e+0
vn 0.0000000e+0 0.0000000e+0 -1.00000000
vn -1.00000000 0.0000000e+0 0.0000000e+0
vn 0.0000000e+0 0.0000000e+0 -1.00000000
vn 0.0000000e+0 0.0000000e+0 -1.00000000
vn -1.00000000 0.0000000e+0 0.0000000e+0
vn -1.00000000 0.0000000e+0 0.0000000e+0
vn 0.0000000e+0 1.00000000 1.0238430e-16
vn -1.00000000 0.0000000e+0 0.0000000e+0
vn -1.00000000 0.0000000e+0 0.0000000e+0
vn 0.0000000e+0 0.0000000e+0 1.00000000
vn 0.0000000e+0 0.0000000e+0 1.00000000
vn 0.0000000e+0 -1.00000000 0.0000000e+0
vn -1.00000000 0.0000000e+0 0.0000000e+0
vn 1.00000000 0.0000000e+0 0.0000000e+0
vn 0.0000000e+0 0.0000000e+0 -1.00000000
vn 9.6418549e-17 -1.00000000 0.0000000e+0
vn 0.0000000e+0 0.0000000e+0 -1.00000000
vn 1.00000000 0.0000000e+0 0.0000000e+0
vn 0.0000000e+0 0.0000000e+0 1.00000000
vn 0.0000000e+0 0.0000000e+0 1.00000000
vn 9.6418549e-17 -1.00000000 0.0000000e+0
vn 1.00000000 2.3896499e-15 5.1649808e-17
vn 0.0000000e+0 -1.00000000 -1.0238430e-16
vn 0.0000000e+0 0.0000000e+0 1.00000000
vn -1.00000000 0.0000000e+0 0.0000000e+0
vn -1.00000000 0.0000000e+0 0.0000000e+0
vn 0.0000000e+0 -1.00000000 -1.0238430e-16
vn -1.00000000 0.0000000e+0 0.0000000e+0
vn 0.0000000e+0 -1.00000000 0.0000000e+0
vn 0.0000000e+0 0.0000000e+0 -1.00000000
vn 0.0000000e+0 0.0000000e+0 -1.00000000
vn -8.2644470e-17 1.00000000 -1.9574143e-31
vn 0.0000000e+0 0.0000000e+0 -1.00000000
vn -1.00000000 0.0000000e+0 0.0000000e+0
vn 0.0000000e+0 0.0000000e+0 -1.00000000
vn -8.2644470e-17 1.00000000 -1.9574143e-31
vn 0.0000000e+0 0.0000000e+0 1.00000000
vn -1.00000000 0.0000000e+0 -1.7216603e-17
vn 0.0000000e+0 1.00000000 1.0238430e-16
vn -1.00000000 0.0000000e+0 0.0000000e+0
vn 0.0000000e+0 0.0000000e+0 1.00000000
vn -1.00000000 0.0000000e+0 0.0000000e+0
vn 0.0000000e+0 0.0000000e+0 1.00000000
vn 0.0000000e+0 -1.00000000 0.0000000e+0
vn 0.0000000e+0 -1.00000000 0.0000000e+0
vn 1.00000000 0.0000000e+0 0.0000000e+0
vn 0.0000000e+0 0.0000000e+0 -1.00000000
vn 1.00000000 0.0000000e+0 0.0000000e+0
vn 0.0000000e+0 0.0000000e+0 -1.00000000
vn 1.00000000 0.0000000e+0 0.0000000e+0
vn 0.0000000e+0 0.0000000e+0 -1.00000000
vn 1.00000000 0.0000000e+0 6.8866411e-17
vn 1.00000000 0.0000000e+0 6.8866411e-17
vn 0.0000000e+0 1.00000000 1.0238430e-16
vn 0.0000000e+0 0.0000000e+0 1.00000000
vn 1.00000000 0.0000000e+0 6.8866411e-17
vn 0.0000000e+0 0.0000000e+0 1.00000000
vn 0.0000000e+0 -1.00000000 0.0000000e+0
vn 1.00000000 0.0000000e+0 0.0000000e+0
vn -1.00000000 0.0000000e+0 0.0000000e+0
vn 0.0000000e+0 0.0000000e+0 -1.00000000
vn 9.6418549e-17 -1.00000000 0.0000000e+0
vn 0.0000000e+0 0.0000000e+0 -1.00000000
vn -1.00000000 0.0000000e+0 0.0000000e+0
vn 0.0000000e+0 0.0000000e+0 1.00000000
vn 0.0000000e+0 0.0000000e+0 1.00000000
vn 9.6418549e-17 -1.00000000 0.0000000e+0
vn -1.00000000 0.0000000e+0 -1.7216603e-17
vn 0.0000000e+0 -1.00000000 -1.0238430e-16
vn 0.0000000e+0 0.0000000e+0 1.00000000
vn 1.00000000 0.0000000e+0 1.0329962e-16
vn 0.0000000e+0 -1.00000000 -1.0238430e-16
vn 1.00000000 0.0000000e+0 1.0329962e-16
vn 0.0000000e+0 1.00000000 0.0000000e+0
vn 1.00000000 0.0000000e+0 0.0000000e+0
vn 0.0000000e+0 0.0000000e+0 1.00000000
vn 0.0000000e+0 1.00000000 0.0000000e+0
vn 1.00000000 0.0000000e+0 0.0000000e+0
vn 0.0000000e+0 0.0000000e+0 -1.00000000
vn 0.0000000e+0 1.00000000 0.0000000e+0
vn 0.0000000e+0 0.0000000e+0 -1.00000000
vn -1.00000000 0.0000000e+0 0.0000000e+0
vn 0.0000000e+0 1.00000000 0.0000000e+0
vn -1.00000000 0.0000000e+0 0.0000000e+0
vn 0.0000000e+0 0.0000000e+0 1.00000000
vn 0.0000000e+0 1.00000000 0.0000000e+0
vn -1.00000000 0.0000000e+0 0.0000000e+0
vn 0.0000000e+0 0.0000000e+0 -1.00000000
vn 0.0000000e+0 1.00000000 0.0000000e+0
vn -1.00000000 0.0000000e+0 0.0000000e+0
vn 0.0000000e+0 0.0000000e+0 1.00000000
vn 0.0000000e+0 1.00000000 0.0000000e+0
vn 0.0000000e+0 0.0000000e+0 1.00000000
vn 1.00000000 0.0000000e+0 0.0000000e+0
vn 0.0000000e+0 1.00000000 0.0000000e+0
vn 1.00000000 0.0000000e+0 0.0000000e+0
vn 0.0000000e+0 0.0000000e+0 -1.00000000
vn 0.0000000e+0 1.00000000 0.0000000e+0
vn 1.00000000 0.0000000e+0 5.6506950e-15
vn 0.0000000e+0 0.0000000e+0 1.00000000
vn 0.0000000e+0 1.00000000 0.0000000e+0
vn 1.00000000 0.0000000e+0 5.6506950e-15
vn 0.0000000e+0 0.0000000e+0 -1.00000000
vn 0.0000000e+0 1.00000000 0.0000000e+0
vn 0.0000000e+0 0.0000000e+0 -1.00000000
vn -1.00000000 0.0000000e+0 0.0000000e+0
vn 0.0000000e+0 1.00000000 0.0000000e+0
vn -1.00000000 0.0000000e+0 0.0000000e+0
vn 0.0000000e+0 0.0000000e+0 1.00000000
vn 0.0000000e+0 1.00000000 0.0000000e+0
vn -1.00000000 0.0000000e+0 0.0000000e+0
vn 0.0000000e+0 0.0000000e+0 -1.00000000
vn 0.0000000e+0 1.00000000 0.0000000e+0
vn -1.00000000 0.0000000e+0 0.0000000e+0
vn 0.0000000e+0 0.0000000e+0 1.00000000
vn 0.0000000e+0 1.00000000 0.0000000e+0
vn 0.0000000e+0 0.0000000e+0 1.00000000
vn 1.00000000 0.0000000e+0 0.0000000e+0
vn 0.0000000e+0 1.00000000 0.0000000e+0
vn 1.00000000 0.0000000e+0 0.0000000e+0
vn 0.0000000e+0 0.0000000e+0 -1.00000000
g cube45_reflectmetal
usemtl reflectmetal
f 9/157/25 12/166/39 18/169/61 17/159/57
f 9/181/26 13/195/42 16/198/55 12/184/41
f 10/45/29 21/88/75 22/89/79 11/46/33
f 10/57/32 53/55/211 56/37/220 14/53/48
f 11/91/34 22/44/80 29/51/109 18/90/63
f 11/33/36 33/32/128 37/29/142 15/31/50
f 11/194/37 54/196/213 53/182/210 10/180/31
f 14/152/45 15/142/49 19/140/68 16/78/56 13/77/43
f 14/152/47 56/155/219 55/144/217 15/142/53
f 15/142/51 37/24/143 41/26/161 19/140/69
f 15/193/52 55/194/216 54/180/214 11/178/38
f 16/146/54 19/145/67 18/132/62 12/134/40
f 17/59/58 10/57/28 14/53/46 13/62/44 9/60/27
f 17/59/60 28/100/106 21/102/76 10/57/30
f 18/85/64 29/47/110 28/41/105 17/84/59
f 18/8/65 40/203/157 33/204/127 11/10/35
f 19/28/70 41/30/162 40/23/158 18/21/66
f 20/74/73 24/72/90 25/106/92 21/102/74 28/100/104
f 21/177/77 58/179/225 57/174/222 22/173/83
f 22/206/81 44/9/173 51/7/203 29/205/111
f 22/191/84 57/192/223 60/190/232 26/189/99
f 23/172/87 27/165/101 24/164/88 20/171/72
f 23/123/86 29/125/108 30/119/113 27/116/100
f 24/67/89 27/64/102 30/27/114 26/25/95 25/17/91
f 25/106/93 59/108/228 58/104/226 21/102/78
f 26/22/97 48/20/189 44/6/174 22/15/82
f 26/25/98 60/19/231 59/11/229 25/17/94
f 28/120/103 29/115/107 23/114/85 20/118/71
f 29/38/112 51/36/204 52/34/207 30/35/115
f 30/27/116 52/139/208 48/141/188 26/25/96
f 31/75/119 35/73/136 36/107/138 32/103/120 39/101/150
f 32/103/122 43/56/168 50/58/198 39/101/152
f 32/201/123 62/202/237 61/188/234 33/187/129
f 33/40/125 44/82/171 43/83/167 32/48/121
f 33/135/130 61/136/235 64/130/244 37/129/145
f 34/150/133 38/162/147 35/163/134 31/151/118
f 34/117/132 40/118/154 41/113/159 38/112/146
f 35/66/135 38/65/148 41/26/160 37/24/141 36/16/137
f 36/107/139 63/109/240 62/105/238 32/103/124
f 37/24/144 64/18/243 63/12/241 36/16/140
f 39/176/149 40/168/153 34/167/131 31/175/117
f 39/81/151 50/50/197 51/43/202 40/80/156
f 40/49/155 51/86/201 44/87/172 33/42/126
f 42/148/163 45/158/177 51/156/199 50/147/195
f 42/122/164 46/111/180 49/110/193 45/121/179
f 43/56/170 65/54/247 68/39/256 47/52/186
f 44/200/175 66/201/249 65/187/246 43/186/169
f 47/153/183 48/141/187 52/139/206 49/79/194 46/76/181
f 47/153/185 68/154/255 67/143/253 48/141/191
f 48/173/190 67/174/252 66/161/250 44/160/176
f 49/131/192 52/133/205 51/126/200 45/124/178
f 50/58/196 43/56/166 47/52/184 46/63/182 42/61/165
f 54/199/212 55/185/215 56/183/218 53/197/209
f 58/162/224 59/170/227 60/171/230 57/164/221
f 62/151/236 63/138/239 64/137/242 61/149/233
f 66/121/248 67/127/251 68/128/254 65/122/245
g cube45_white
usemtl white
f 1/4/1 4/94/10 3/93/7 2/5/4
f 1/14/2 5/71/13 8/70/23 4/3/12
f 2/208/6 6/95/18 5/92/15 1/207/3
f 3/210/9 7/99/20 6/98/16 2/209/5
f 4/5/11 8/68/22 7/69/19 3/13/8
f 6/96/17 7/2/21 8/1/24 5/97/14
